<?xml version="1.0" encoding="UTF-8"?><svg id="BACKGROUND" xmlns="http://www.w3.org/2000/svg" xmlns:xlink="http://www.w3.org/1999/xlink" viewBox="0 0 985.38 904.99"><defs><style>.cls-1{fill:none;}.cls-2{clip-path:url(#clippath);}.cls-3{fill:#eec067;}.cls-4{fill:#7cc4b0;}.cls-5{fill:#32338c;}.cls-6{fill:#db7676;}.cls-7{clip-path:url(#clippath-1);}.cls-8{clip-path:url(#clippath-3);}.cls-9{clip-path:url(#clippath-2);}</style><clipPath id="clippath"><rect class="cls-1" x="120.44" y="198.9" width="750" height="500"/></clipPath><clipPath id="clippath-1"><path class="cls-1" d="m195.79,295.29c-16.59,16.59-43.5,16.6-60.1,0-16.6-16.6-16.6-43.5,0-60.1,16.6-16.6,43.5-16.6,60.1,0,16.6,16.6,16.6,43.5,0,60.1Z"/></clipPath><clipPath id="clippath-2"><path class="cls-1" d="m871.55,442.59c-23.47,23.47-61.52,23.47-84.99,0-23.47-23.47-23.47-61.52,0-84.99,23.47-23.47,61.52-23.47,84.99,0,23.47,23.47,23.47,61.52,0,84.99Z"/></clipPath><clipPath id="clippath-3"><path class="cls-1" d="m379.58,733.6c-19.32,19.32-50.65,19.32-69.97,0-19.32-19.32-19.32-50.65,0-69.97,19.32-19.32,50.65-19.32,69.97,0,19.32,19.32,19.32,50.65,0,69.97Z"/></clipPath></defs><g class="cls-2"><path class="cls-6" d="m268.1,277.12l-78.22-78.22,78.22-78.22,78.22,78.22-78.22,78.22Zm-72.57-78.22l72.57,72.57,72.57-72.57-72.57-72.57-72.57,72.57Z"/><path class="cls-6" d="m268.1,260.42l-61.52-61.52,61.52-61.52,61.52,61.52-61.52,61.52Zm-55.88-61.52l55.88,55.88,55.88-55.88-55.88-55.88-55.88,55.88Z"/><path class="cls-6" d="m268.1,242.24l-43.34-43.34,43.34-43.34,43.34,43.34-43.34,43.34Zm-37.7-43.34l37.7,37.7,37.7-37.7-37.7-37.7-37.7,37.7Z"/><path class="cls-4" d="m626.5,777.11l-78.22-78.21,78.22-78.22,78.21,78.22-78.21,78.21Zm-72.57-78.21l72.57,72.57,72.57-72.57-72.57-72.57-72.57,72.57Z"/><path class="cls-4" d="m626.5,760.42l-61.53-61.52,61.53-61.52,61.52,61.52-61.52,61.52Zm-55.88-61.52l55.88,55.88,55.87-55.88-55.87-55.88-55.88,55.88Z"/><path class="cls-4" d="m626.5,742.24l-43.34-43.34,43.34-43.34,43.34,43.34-43.34,43.34Zm-37.7-43.34l37.7,37.7,37.7-37.7-37.7-37.7-37.7,37.7Z"/><path class="cls-5" d="m719.83,904.99l-155.56-155.56,155.56-155.56,155.56,155.56-155.56,155.56Zm-154.14-155.56l154.14,154.14,154.14-154.14-154.14-154.14-154.14,154.14Z"/><path class="cls-5" d="m345.86,267.61l-133.81-133.81L345.86,0l133.81,133.81-133.81,133.81Zm-132.59-133.81l132.59,132.59,132.59-132.59L345.86,1.22l-132.59,132.59Z"/><path class="cls-5" d="m870.44,441.46l-114.94-114.94,114.94-114.94,114.94,114.94-114.94,114.94Zm-113.52-114.94l113.52,113.52,113.52-113.52-113.52-113.52-113.52,113.52Z"/><path class="cls-5" d="m120.44,664.54l-95.44-95.44,95.44-95.44,95.44,95.44-95.44,95.44Zm-94.26-95.44l94.26,94.26,94.26-94.26-94.26-94.26-94.26,94.26Z"/><path class="cls-5" d="m165.74,379.8c-31.58,0-57.28-25.7-57.28-57.28s25.7-57.28,57.28-57.28,57.28,25.7,57.28,57.28-25.7,57.28-57.28,57.28Zm0-111.56c-29.93,0-54.28,24.35-54.28,54.28s24.35,54.28,54.28,54.28,54.28-24.35,54.28-54.28-24.35-54.28-54.28-54.28Z"/><circle class="cls-3" cx="143.62" cy="300.07" r="45.57"/><path class="cls-6" d="m446.35,669.61c0,24.02-19.47,43.5-43.5,43.5s-43.5-19.47-43.5-43.5,19.47-43.5,43.5-43.5,43.5,19.47,43.5,43.5Z"/><path class="cls-5" d="m446.85,751.4c-29.1,0-52.78-23.68-52.78-52.78s23.68-52.78,52.78-52.78,52.78,23.68,52.78,52.78-23.68,52.78-52.78,52.78Zm0-102.8c-27.58,0-50.02,22.44-50.02,50.02s22.44,50.02,50.02,50.02,50.02-22.44,50.02-50.02-22.44-50.02-50.02-50.02Z"/><g class="cls-7"><polygon class="cls-5" points=".65 359.25 0 358.6 199.96 158.64 200.6 159.29 .65 359.25"/><rect class="cls-5" x="-34.63" y="264.95" width="282.78" height=".91" transform="translate(-156.4 153.23) rotate(-45)"/><rect class="cls-5" x="-28.17" y="271.41" width="282.78" height=".91" transform="translate(-159.08 159.69) rotate(-45)"/><rect class="cls-5" x="-21.71" y="277.87" width="282.78" height=".91" transform="translate(-161.84 166.37) rotate(-45.04)"/><rect class="cls-5" x="-15.25" y="284.33" width="282.78" height=".91" transform="translate(-164.51 172.81) rotate(-45.04)"/><rect class="cls-5" x="-8.79" y="290.79" width="282.78" height=".91" transform="translate(-167.15 179.19) rotate(-45.02)"/><rect class="cls-5" x="-2.32" y="297.25" width="282.78" height=".91" transform="translate(-169.78 185.53) rotate(-45)"/><rect class="cls-5" x="4.14" y="303.71" width="282.78" height=".92" transform="translate(-172.37 191.75) rotate(-44.96)"/><rect class="cls-5" x="10.6" y="310.18" width="282.78" height=".91" transform="translate(-175.18 198.58) rotate(-45.02)"/><rect class="cls-5" x="17.06" y="316.64" width="282.78" height=".91" transform="translate(-177.9 205.18) rotate(-45.04)"/><rect class="cls-5" x="23.52" y="323.1" width="282.78" height=".91" transform="translate(-180.32 210.87) rotate(-44.92)"/><rect class="cls-5" x="29.98" y="329.56" width="282.78" height=".91" transform="translate(-183.16 217.84) rotate(-45)"/></g><g class="cls-9"><rect class="cls-5" x="536.55" y="390.55" width="399.92" height="1.29" transform="translate(-60.91 635.33) rotate(-45)"/><rect class="cls-5" x="545.69" y="399.68" width="399.92" height="1.29" transform="translate(-64.43 645.35) rotate(-45.06)"/><rect class="cls-5" x="554.83" y="408.82" width="399.92" height="1.29" transform="translate(-68.46 653.64) rotate(-45)"/><rect class="cls-5" x="563.97" y="417.96" width="399.92" height="1.29" transform="translate(-72.25 662.78) rotate(-45)"/><rect class="cls-5" x="573.1" y="427.09" width="399.92" height="1.29" transform="translate(-76.02 671.97) rotate(-45)"/><rect class="cls-5" x="582.24" y="436.23" width="399.92" height="1.29" transform="translate(-79.55 682) rotate(-45.06)"/><rect class="cls-5" x="591.38" y="445.37" width="399.92" height="1.29" transform="translate(-83.6 690.2) rotate(-45)"/><rect class="cls-5" x="600.51" y="454.5" width="399.92" height="1.3" transform="translate(-87.39 699.33) rotate(-45)"/><rect class="cls-5" x="609.65" y="463.64" width="399.92" height="1.29" transform="translate(-91.04 708.96) rotate(-45.03)"/><rect class="cls-5" x="618.79" y="472.78" width="399.92" height="1.29" transform="translate(-94.42 719.6) rotate(-45.13)"/><polygon class="cls-5" points="686.95 624.41 686.04 623.5 968.82 340.71 969.73 341.63 686.95 624.41"/><rect class="cls-5" x="637.06" y="491.05" width="399.92" height="1.29" transform="translate(-102.9 734.44) rotate(-44.91)"/></g><g class="cls-8"><polygon class="cls-5" points="152.38 808.06 151.63 807.31 384.43 574.51 385.18 575.26 152.38 808.06"/><rect class="cls-5" x="111.31" y="698.28" width="329.23" height="1.06" transform="translate(-413.53 400.29) rotate(-45.04)"/><rect class="cls-5" x="118.84" y="705.8" width="329.23" height="1.06" transform="translate(-416.41 407.26) rotate(-45)"/><rect class="cls-5" x="126.36" y="713.32" width="329.23" height="1.06" transform="translate(-419.73 415.26) rotate(-45.03)"/><rect class="cls-5" x="133.88" y="720.84" width="329.23" height="1.06" transform="translate(-422.66 422.35) rotate(-45)"/><rect class="cls-5" x="141.4" y="728.37" width="329.23" height="1.06" transform="translate(-425.96 430.31) rotate(-45.03)"/><rect class="cls-5" x="148.92" y="735.89" width="329.23" height="1.06" transform="translate(-428.68 436.86) rotate(-44.96)"/><rect class="cls-5" x="156.45" y="743.41" width="329.23" height="1.07" transform="translate(-431.81 444.42) rotate(-44.96)"/><rect class="cls-5" x="163.97" y="750.93" width="329.23" height="1.06" transform="translate(-434.95 451.98) rotate(-44.97)"/><rect class="cls-5" x="171.49" y="758.46" width="329.23" height="1.06" transform="translate(-438.62 460.94) rotate(-45.07)"/><polygon class="cls-5" points="227.6 883.29 226.85 882.53 459.65 649.73 460.4 650.48 227.6 883.29"/><rect class="cls-5" x="186.53" y="773.5" width="329.23" height="1.06" transform="translate(-444.09 474) rotate(-44.93)"/></g><polygon class="cls-4" points="233.32 338.82 233.09 332.12 249.6 331.55 250.28 311.93 269.91 311.24 270.59 291.61 290.23 290.93 290.8 274.41 297.5 274.65 296.7 297.4 277.07 298.09 276.39 317.72 256.76 318.4 256.08 338.03 233.32 338.82"/><polygon class="cls-6" points="229.14 374.6 228.91 367.91 245.41 367.34 246.09 347.71 265.72 347.03 266.4 327.4 286.04 326.71 286.62 310.2 293.31 310.43 292.52 333.19 272.88 333.88 272.2 353.51 252.57 354.19 251.89 373.82 229.14 374.6"/><path class="cls-5" d="m620.66,248.27l-.27-7.7,16.54-.57.68-19.63,19.63-.68.68-19.63,19.64-.69.58-16.55,7.7.27-.83,23.72-19.64.69-.68,19.63-19.63.68-.68,19.63-23.72.82Zm.77-6.73l.2,5.7,21.79-.75.68-19.63,19.63-.68.68-19.63,19.64-.69.76-21.79-5.7-.2-.58,16.48-19.64.69-.68,19.63-19.63.68-.68,19.63-16.47.57Z"/><polygon class="cls-3" points="660.36 247.75 660.13 241.05 676.63 240.48 677.31 220.86 696.95 220.17 697.63 200.54 717.26 199.86 717.84 183.34 724.54 183.58 723.74 206.34 704.11 207.02 703.43 226.65 683.79 227.33 683.11 246.97 660.36 247.75"/><path class="cls-5" d="m140.47,713.71l-.27-7.7,16.54-.57.68-19.63,19.63-.68.68-19.63,19.64-.69.58-16.55,7.7.27-.83,23.72-19.64.69-.68,19.63-19.63.68-.68,19.63-23.72.82Zm.77-6.73l.2,5.7,21.79-.75.68-19.63,19.63-.68.68-19.63,19.64-.69.76-21.79-5.7-.2-.58,16.48-19.64.69-.68,19.63-19.63.68-.68,19.63-16.47.57Z"/><polygon class="cls-6" points="716.77 674.02 716.54 667.32 733.04 666.75 733.72 647.12 753.35 646.44 754.03 626.81 773.67 626.12 774.25 609.61 780.94 609.84 780.15 632.6 760.51 633.29 759.83 652.92 740.2 653.6 739.52 673.23 716.77 674.02"/><polygon class="cls-3" points="720.77 635.81 720.54 629.12 737.04 628.55 737.72 608.92 757.35 608.24 758.03 588.61 777.67 587.92 778.25 571.41 784.94 571.64 784.15 594.4 764.51 595.09 763.83 614.71 744.2 615.4 743.52 635.03 720.77 635.81"/><polygon class="cls-4" points="174.09 464.66 174.09 396.17 142.45 430.41 174.09 464.66"/><polygon class="cls-6" points="513.41 142.38 513.41 255.42 565.65 198.9 513.41 142.38"/><path class="cls-5" d="m791.43,313.28c-21.09,0-38.24-17.16-38.24-38.24s17.16-38.24,38.24-38.24,38.24,17.15,38.24,38.24-17.16,38.24-38.24,38.24Zm0-74.48c-19.98,0-36.24,16.26-36.24,36.24s16.26,36.24,36.24,36.24,36.24-16.26,36.24-36.24-16.26-36.24-36.24-36.24Z"/><path class="cls-4" d="m845.06,269.24c0,18.44-14.95,33.39-33.39,33.39s-33.39-14.95-33.39-33.39,14.95-33.4,33.39-33.4,33.39,14.95,33.39,33.4Z"/><rect class="cls-6" x="206.17" y="511.96" width="4.14" height="14.09"/><rect class="cls-6" x="206.17" y="594.83" width="4.14" height="14.09"/><rect class="cls-6" x="242.63" y="558.37" width="14.09" height="4.14"/><rect class="cls-6" x="159.76" y="558.37" width="14.09" height="4.14"/><rect class="cls-6" x="230.49" y="529.07" width="14.09" height="4.14" transform="translate(-306 323.54) rotate(-45)"/><rect class="cls-6" x="171.9" y="587.66" width="14.09" height="4.14" transform="translate(-364.54 299.15) rotate(-44.99)"/><rect class="cls-6" x="235.47" y="582.69" width="4.14" height="14.09" transform="translate(-347.43 340.68) rotate(-45)"/><rect class="cls-6" x="176.87" y="524.09" width="4.14" height="14.09" transform="translate(-323.21 282.2) rotate(-45.01)"/><rect class="cls-6" x="217.61" y="520.32" width="14.09" height="4.14" transform="translate(-344 521.71) rotate(-66.66)"/><rect class="cls-6" x="184.78" y="596.41" width="14.09" height="4.14" transform="translate(-433.67 537.36) rotate(-66.65)"/><rect class="cls-6" x="244.21" y="569.81" width="4.14" height="14.09" transform="translate(-380.94 574.37) rotate(-66.65)"/><rect class="cls-6" x="168.12" y="536.97" width="4.14" height="14.09" transform="translate(-396.73 484.74) rotate(-66.66)"/><rect class="cls-6" x="239.7" y="543.08" width="14.09" height="4.14" transform="translate(-183.78 129.56) rotate(-21.66)"/><rect class="cls-6" x="162.68" y="573.66" width="14.09" height="4.14" transform="translate(-200.38 103.19) rotate(-21.64)"/><rect class="cls-6" x="221.46" y="591.9" width="4.14" height="14.09" transform="translate(-205.2 124.71) rotate(-21.65)"/><rect class="cls-6" x="190.88" y="514.88" width="4.14" height="14.09" transform="translate(-179.1 108.15) rotate(-21.67)"/><rect class="cls-3" x="437.44" y="153.19" width="4.14" height="14.09"/><rect class="cls-3" x="437.44" y="236.06" width="4.14" height="14.09"/><rect class="cls-3" x="473.9" y="199.59" width="14.09" height="4.14"/><rect class="cls-3" x="391.03" y="199.59" width="14.09" height="4.14"/><rect class="cls-3" x="461.76" y="170.3" width="14.09" height="4.14" transform="translate(15.43 381.98) rotate(-45)"/><rect class="cls-3" x="403.17" y="228.89" width="14.09" height="4.14" transform="translate(-43.21 357.58) rotate(-44.98)"/><rect class="cls-3" x="466.74" y="223.92" width="4.14" height="14.09" transform="translate(-26.01 399.14) rotate(-45)"/><rect class="cls-3" x="408.14" y="165.32" width="4.14" height="14.09" transform="translate(-1.68 340.67) rotate(-45.02)"/><rect class="cls-3" x="448.88" y="161.55" width="14.09" height="4.14" transform="translate(125.05 517.4) rotate(-66.66)"/><rect class="cls-3" x="416.04" y="237.64" width="14.09" height="4.14" transform="translate(35.3 533.12) rotate(-66.65)"/><rect class="cls-3" x="475.48" y="211.04" width="4.14" height="14.09" transform="translate(88.07 570.11) rotate(-66.65)"/><rect class="cls-3" x="399.39" y="178.2" width="4.14" height="14.09" transform="translate(72.32 480.46) rotate(-66.66)"/><rect class="cls-3" x="470.97" y="184.3" width="14.09" height="4.14" transform="translate(-35.04 189.53) rotate(-21.65)"/><rect class="cls-3" x="393.95" y="214.89" width="14.09" height="4.14" transform="translate(-51.76 163.3) rotate(-21.66)"/><rect class="cls-3" x="452.73" y="233.13" width="4.14" height="14.09" transform="translate(-56.52 184.68) rotate(-21.64)"/><rect class="cls-3" x="422.15" y="156.11" width="4.14" height="14.09" transform="translate(-30.27 168.21) rotate(-21.67)"/><rect class="cls-4" x="860.98" y="489.57" width="4.14" height="14.09"/><rect class="cls-4" x="860.98" y="572.44" width="4.14" height="14.09"/><rect class="cls-4" x="897.45" y="535.98" width="14.09" height="4.14"/><rect class="cls-4" x="814.58" y="535.98" width="14.09" height="4.14"/><rect class="cls-4" x="885.31" y="506.68" width="14.09" height="4.14" transform="translate(-98.38 779.98) rotate(-45)"/><rect class="cls-4" x="826.71" y="565.28" width="14.09" height="4.14" transform="translate(-157.03 755.44) rotate(-44.98)"/><rect class="cls-4" x="890.28" y="560.31" width="4.14" height="14.09" transform="translate(-139.81 797.18) rotate(-45)"/><rect class="cls-4" x="831.68" y="501.71" width="4.14" height="14.09" transform="translate(-115.47 738.84) rotate(-45.02)"/><rect class="cls-4" x="872.43" y="497.94" width="14.09" height="4.14" transform="translate(71.94 1109.42) rotate(-66.66)"/><rect class="cls-4" x="839.59" y="574.02" width="14.09" height="4.14" transform="translate(-17.86 1125.03) rotate(-66.65)"/><rect class="cls-4" x="899.03" y="547.43" width="4.14" height="14.09" transform="translate(34.93 1162.07) rotate(-66.65)"/><rect class="cls-4" x="822.94" y="514.59" width="4.14" height="14.09" transform="translate(19.19 1072.44) rotate(-66.66)"/><rect class="cls-4" x="894.52" y="520.69" width="14.09" height="4.14" transform="translate(-129.28 369.58) rotate(-21.65)"/><rect class="cls-4" x="817.5" y="551.27" width="14.09" height="4.14" transform="translate(-146 343.32) rotate(-21.65)"/><rect class="cls-4" x="876.27" y="569.52" width="4.14" height="14.09" transform="translate(-150.73 364.61) rotate(-21.64)"/><rect class="cls-4" x="845.69" y="492.5" width="4.14" height="14.09" transform="translate(-124.56 348.43) rotate(-21.67)"/><path class="cls-6" d="m816,149.6c4.1,4.1,4.1,10.75,0,14.85l-148.56,148.56c-4.1,4.1-10.75,4.1-14.85,0h0c-4.1-4.1-4.1-10.75,0-14.85l148.56-148.56c4.1-4.1,10.75-4.1,14.85,0h0Z"/><path class="cls-5" d="m658.83,336.84c-3.61,0-7-1.41-9.55-3.96-5.27-5.27-5.27-13.84,0-19.1l184.06-184.06c2.55-2.55,5.94-3.96,9.55-3.96s7,1.41,9.55,3.96c2.55,2.55,3.96,5.94,3.96,9.55s-1.41,7-3.96,9.55l-184.06,184.06c-2.55,2.55-5.95,3.96-9.55,3.96Zm184.06-210.08c-3.34,0-6.48,1.3-8.84,3.66l-184.06,184.06c-4.88,4.88-4.88,12.81,0,17.69,2.36,2.36,5.5,3.66,8.85,3.66s6.48-1.3,8.85-3.66l184.06-184.06c4.88-4.88,4.88-12.81,0-17.69-2.36-2.36-5.5-3.66-8.85-3.66Z"/><path class="cls-3" d="m322.85,603.09c4.1,4.1,4.1,10.75,0,14.85l-148.56,148.56c-4.1,4.1-10.75,4.1-14.85,0h0c-4.1-4.1-4.1-10.75,0-14.85l148.56-148.56c4.1-4.1,10.75-4.1,14.85,0h0Z"/><path class="cls-5" d="m169.87,753.93c-3.61,0-7-1.41-9.55-3.96-5.27-5.27-5.27-13.84,0-19.11l184.06-184.06c2.55-2.55,5.94-3.96,9.55-3.96s7,1.4,9.55,3.96c2.55,2.55,3.96,5.94,3.96,9.55s-1.41,7-3.96,9.55l-184.06,184.06c-2.55,2.55-5.95,3.96-9.55,3.96Zm184.06-210.08c-3.34,0-6.48,1.3-8.84,3.66l-184.06,184.06c-4.88,4.88-4.88,12.81,0,17.69,2.36,2.36,5.5,3.66,8.85,3.66s6.48-1.3,8.85-3.66l184.06-184.06c4.88-4.88,4.88-12.81,0-17.69-2.36-2.36-5.5-3.66-8.85-3.66Z"/><polygon class="cls-3" points="266.05 447.46 266.85 427.56 246.95 428.36 246.78 424 271.4 423.01 270.41 447.64 266.05 447.46"/><polygon class="cls-3" points="254.48 459.04 255.27 439.14 235.38 439.93 235.2 435.57 259.82 434.59 258.84 459.21 254.48 459.04"/><polygon class="cls-3" points="242.9 470.61 243.7 450.72 223.8 451.51 223.63 447.15 248.25 446.16 247.26 470.79 242.9 470.61"/><polygon class="cls-6" points="763.63 511.67 762.83 531.56 782.73 530.77 782.9 535.13 758.28 536.11 759.27 511.49 763.63 511.67"/><polygon class="cls-6" points="775.2 500.09 774.41 519.99 794.3 519.19 794.48 523.55 769.86 524.54 770.84 499.92 775.2 500.09"/><polygon class="cls-6" points="786.78 488.52 785.98 508.41 805.88 507.62 806.05 511.98 781.43 512.96 782.42 488.34 786.78 488.52"/><polygon class="cls-3" points="385.54 275.79 399.6 289.86 401.09 274.31 385.54 275.79"/><polygon class="cls-3" points="376.35 284.99 390.41 299.05 391.89 283.5 376.35 284.99"/><polygon class="cls-3" points="367.15 294.18 381.22 308.24 382.7 292.69 367.15 294.18"/><polygon class="cls-6" points="519.43 661.53 505.36 647.47 503.88 663.02 519.43 661.53"/><polygon class="cls-6" points="528.62 652.34 514.55 638.28 513.07 653.82 528.62 652.34"/><polygon class="cls-6" points="537.81 643.15 523.75 629.08 522.26 644.63 537.81 643.15"/><polygon class="cls-4" points="732.15 481.07 746.21 495.13 747.7 479.58 732.15 481.07"/><polygon class="cls-4" points="722.96 490.26 737.02 504.32 738.51 488.77 722.96 490.26"/><polygon class="cls-4" points="713.77 499.45 727.83 513.51 729.31 497.96 713.77 499.45"/><rect class="cls-5" x="293.53" y="371" width="46.09" height="1.43" transform="translate(-170.12 332.7) rotate(-45)"/><rect class="cls-5" x="293.53" y="392.44" width="46.09" height="1.43" transform="translate(-185.28 338.98) rotate(-45)"/><rect class="cls-5" x="635.68" y="521.77" width="46.09" height="1.43" transform="translate(-176.51 618.82) rotate(-45)"/><rect class="cls-5" x="635.68" y="543.2" width="46.09" height="1.43" transform="translate(-191.64 625.48) rotate(-45.03)"/><rect class="cls-5" x="566.78" y="209.63" width="46.09" height="1.43" transform="translate(24.02 478.68) rotate(-45)"/><rect class="cls-5" x="566.78" y="231.07" width="46.09" height="1.43" transform="translate(8.92 485.1) rotate(-45.01)"/><rect class="cls-5" x="453.69" y="620.83" width="46.09" height="1.43" transform="translate(-299.86 519.11) rotate(-45)"/><rect class="cls-5" x="453.69" y="642.27" width="46.09" height="1.43" transform="translate(-315.03 525.43) rotate(-45)"/><path class="cls-4" d="m438.19,289.43c-.91.91-2.39.91-3.3,0-.91-.91-.91-2.39,0-3.3.91-.91,2.39-.91,3.3,0s.91,2.39,0,3.3Z"/><path class="cls-4" d="m452.33,303.57c-.91.91-2.39.91-3.3,0-.91-.91-.91-2.39,0-3.3.91-.91,2.39-.91,3.3,0,.91.91.91,2.39,0,3.3Z"/><path class="cls-4" d="m466.47,317.72c-.91.91-2.39.91-3.3,0-.91-.91-.91-2.39,0-3.3.91-.91,2.39-.91,3.3,0,.91.91.91,2.39,0,3.3Z"/><path class="cls-4" d="m424.05,303.57c-.91.91-2.39.91-3.3,0-.91-.91-.91-2.39,0-3.3.91-.91,2.39-.91,3.3,0s.91,2.39,0,3.3Z"/><path class="cls-4" d="m438.19,317.72c-.91.91-2.39.91-3.3,0-.91-.91-.91-2.39,0-3.3.91-.91,2.39-.91,3.3,0s.91,2.39,0,3.3Z"/><path class="cls-4" d="m452.33,331.86c-.91.91-2.39.91-3.3,0-.91-.91-.91-2.39,0-3.3.91-.91,2.39-.91,3.3,0,.91.91.91,2.39,0,3.3Z"/><path class="cls-4" d="m466.47,261.15c-.91.91-2.39.91-3.3,0-.91-.91-.91-2.39,0-3.3.91-.91,2.39-.91,3.3,0,.91.91.91,2.39,0,3.3Z"/><path class="cls-4" d="m480.62,275.29c-.91.91-2.39.91-3.3,0-.91-.91-.91-2.39,0-3.3s2.39-.91,3.3,0c.91.91.91,2.39,0,3.3Z"/><path class="cls-4" d="m494.76,289.43c-.91.91-2.39.91-3.3,0-.91-.91-.91-2.39,0-3.3.91-.91,2.39-.91,3.3,0s.91,2.39,0,3.3Z"/><path class="cls-4" d="m452.33,275.29c-.91.91-2.39.91-3.3,0-.91-.91-.91-2.39,0-3.3.91-.91,2.39-.91,3.3,0,.91.91.91,2.39,0,3.3Z"/><path class="cls-4" d="m466.47,289.43c-.91.91-2.39.91-3.3,0-.91-.91-.91-2.39,0-3.3.91-.91,2.39-.91,3.3,0,.91.91.91,2.39,0,3.3Z"/><path class="cls-4" d="m480.62,303.57c-.91.91-2.39.91-3.3,0s-.91-2.39,0-3.3,2.39-.91,3.3,0c.91.91.91,2.39,0,3.3Z"/><path class="cls-6" d="m298.95,517.17c-.91.91-2.39.91-3.3,0s-.91-2.39,0-3.3,2.39-.91,3.3,0,.91,2.39,0,3.3Z"/><path class="cls-6" d="m313.09,531.31c-.91.91-2.39.91-3.3,0s-.91-2.39,0-3.3,2.39-.91,3.3,0c.91.91.91,2.39,0,3.3Z"/><path class="cls-6" d="m327.23,545.45c-.91.91-2.39.91-3.3,0-.91-.91-.91-2.39,0-3.3s2.39-.91,3.3,0,.91,2.39,0,3.3Z"/><path class="cls-6" d="m284.8,531.31c-.91.91-2.39.91-3.3,0-.91-.91-.91-2.39,0-3.3.91-.91,2.39-.91,3.3,0s.91,2.39,0,3.3Z"/><path class="cls-6" d="m298.95,545.45c-.91.91-2.39.91-3.3,0s-.91-2.39,0-3.3c.91-.91,2.39-.91,3.3,0s.91,2.39,0,3.3Z"/><path class="cls-6" d="m313.09,559.59c-.91.91-2.39.91-3.3,0s-.91-2.39,0-3.3c.91-.91,2.39-.91,3.3,0,.91.91.91,2.39,0,3.3Z"/><path class="cls-6" d="m327.23,488.88c-.91.91-2.39.91-3.3,0-.91-.91-.91-2.39,0-3.3.91-.91,2.39-.91,3.3,0s.91,2.39,0,3.3Z"/><path class="cls-6" d="m341.37,503.02c-.91.91-2.39.91-3.3,0-.91-.91-.91-2.39,0-3.3s2.39-.91,3.3,0c.91.91.91,2.39,0,3.3Z"/><path class="cls-6" d="m355.51,517.17c-.91.91-2.39.91-3.3,0-.91-.91-.91-2.39,0-3.3.91-.91,2.39-.91,3.3,0s.91,2.39,0,3.3Z"/><path class="cls-6" d="m313.09,503.02c-.91.91-2.39.91-3.3,0s-.91-2.39,0-3.3c.91-.91,2.39-.91,3.3,0,.91.91.91,2.39,0,3.3Z"/><path class="cls-6" d="m327.23,517.17c-.91.91-2.39.91-3.3,0-.91-.91-.91-2.39,0-3.3.91-.91,2.39-.91,3.3,0s.91,2.39,0,3.3Z"/><path class="cls-6" d="m341.37,531.31c-.91.91-2.39.91-3.3,0-.91-.91-.91-2.39,0-3.3.91-.91,2.39-.91,3.3,0,.91.91.91,2.39,0,3.3Z"/><path class="cls-5" d="m697.46,376.2c-.91.91-2.39.91-3.3,0-.91-.91-.91-2.39,0-3.3.91-.91,2.39-.91,3.3,0,.91.91.91,2.39,0,3.3Z"/><path class="cls-5" d="m711.6,390.35c-.91.91-2.39.91-3.3,0s-.91-2.39,0-3.3,2.39-.91,3.3,0c.91.91.91,2.39,0,3.3Z"/><path class="cls-5" d="m725.74,404.49c-.91.91-2.39.91-3.3,0-.91-.91-.91-2.39,0-3.3.91-.91,2.39-.91,3.3,0,.91.91.91,2.39,0,3.3Z"/><path class="cls-5" d="m683.32,390.35c-.91.91-2.39.91-3.3,0-.91-.91-.91-2.39,0-3.3.91-.91,2.39-.91,3.3,0,.91.91.91,2.39,0,3.3Z"/><path class="cls-5" d="m697.46,404.49c-.91.91-2.39.91-3.3,0-.91-.91-.91-2.39,0-3.3.91-.91,2.39-.91,3.3,0s.91,2.39,0,3.3Z"/><path class="cls-5" d="m711.6,418.63c-.91.91-2.39.91-3.3,0s-.91-2.39,0-3.3c.91-.91,2.39-.91,3.3,0,.91.91.91,2.39,0,3.3Z"/><path class="cls-5" d="m725.74,347.92c-.91.91-2.39.91-3.3,0-.91-.91-.91-2.39,0-3.3.91-.91,2.39-.91,3.3,0s.91,2.39,0,3.3Z"/><path class="cls-5" d="m739.89,362.06c-.91.91-2.39.91-3.3,0-.91-.91-.91-2.39,0-3.3s2.39-.91,3.3,0c.91.91.91,2.39,0,3.3Z"/><path class="cls-5" d="m754.03,376.2c-.91.91-2.39.91-3.3,0-.91-.91-.91-2.39,0-3.3.91-.91,2.39-.91,3.3,0,.91.91.91,2.39,0,3.3Z"/><path class="cls-5" d="m711.6,362.06c-.91.91-2.39.91-3.3,0s-.91-2.39,0-3.3,2.39-.91,3.3,0c.91.91.91,2.39,0,3.3Z"/><path class="cls-5" d="m725.74,376.2c-.91.91-2.39.91-3.3,0-.91-.91-.91-2.39,0-3.3.91-.91,2.39-.91,3.3,0s.91,2.39,0,3.3Z"/><path class="cls-5" d="m739.89,390.35c-.91.91-2.39.91-3.3,0s-.91-2.39,0-3.3,2.39-.91,3.3,0c.91.91.91,2.39,0,3.3Z"/><polygon class="cls-5" points="538.29 246.61 542.58 242.31 546.87 246.61 547.48 245.99 543.19 241.7 547.48 237.41 546.87 236.8 542.58 241.09 538.29 236.8 537.68 237.41 541.97 241.7 537.68 245.99 538.29 246.61"/><polygon class="cls-5" points="538.29 263.94 542.58 259.65 546.87 263.94 547.48 263.33 543.19 259.04 547.48 254.75 546.87 254.13 542.58 258.43 538.29 254.13 537.68 254.75 541.97 259.04 537.68 263.33 538.29 263.94"/><polygon class="cls-5" points="538.29 281.28 542.58 276.99 546.87 281.28 547.48 280.66 543.19 276.37 547.48 272.08 546.87 271.47 542.58 275.76 538.29 271.47 537.68 272.08 541.97 276.37 537.68 280.66 538.29 281.28"/><polygon class="cls-5" points="520.95 246.61 525.24 242.31 529.53 246.61 530.15 245.99 525.86 241.7 530.15 237.41 529.53 236.8 525.24 241.09 520.95 236.8 520.34 237.41 524.63 241.7 520.34 245.99 520.95 246.61"/><polygon class="cls-5" points="520.95 263.94 525.24 259.65 529.53 263.94 530.15 263.33 525.86 259.04 530.15 254.75 529.53 254.13 525.24 258.43 520.95 254.13 520.34 254.75 524.63 259.04 520.34 263.33 520.95 263.94"/><polygon class="cls-5" points="520.95 281.28 525.24 276.99 529.53 281.28 530.15 280.66 525.86 276.37 530.15 272.08 529.53 271.47 525.24 275.76 520.95 271.47 520.34 272.08 524.63 276.37 520.34 280.66 520.95 281.28"/><polygon class="cls-5" points="843.05 640.94 847.34 636.65 851.63 640.94 852.25 640.32 847.96 636.03 852.25 631.74 851.63 631.13 847.34 635.42 843.05 631.13 842.44 631.74 846.73 636.03 842.44 640.32 843.05 640.94"/><polygon class="cls-5" points="843.05 658.27 847.34 653.98 851.63 658.27 852.25 657.66 847.96 653.37 852.25 649.08 851.63 648.47 847.34 652.76 843.05 648.47 842.44 649.08 846.73 653.37 842.44 657.66 843.05 658.27"/><polygon class="cls-5" points="843.05 675.61 847.34 671.32 851.63 675.61 852.25 675 847.96 670.71 852.25 666.41 851.63 665.8 847.34 670.09 843.05 665.8 842.44 666.41 846.73 670.71 842.44 675 843.05 675.61"/><polygon class="cls-5" points="825.72 640.94 830.01 636.65 834.3 640.94 834.91 640.32 830.62 636.03 834.91 631.74 834.3 631.13 830.01 635.42 825.72 631.13 825.11 631.74 829.4 636.03 825.11 640.32 825.72 640.94"/><polygon class="cls-5" points="825.72 658.27 830.01 653.98 834.3 658.27 834.91 657.66 830.62 653.37 834.91 649.08 834.3 648.47 830.01 652.76 825.72 648.47 825.11 649.08 829.4 653.37 825.11 657.66 825.72 658.27"/><polygon class="cls-5" points="825.72 675.61 830.01 671.32 834.3 675.61 834.91 675 830.62 670.71 834.91 666.41 834.3 665.8 830.01 670.09 825.72 665.8 825.11 666.41 829.4 670.71 825.11 675 825.72 675.61"/><polygon class="cls-5" points="383.05 606.15 387.34 601.86 391.63 606.15 392.25 605.54 387.96 601.25 392.25 596.95 391.63 596.34 387.34 600.63 383.05 596.34 382.44 596.95 386.73 601.25 382.44 605.54 383.05 606.15"/><polygon class="cls-5" points="383.05 623.48 387.34 619.19 391.63 623.48 392.25 622.87 387.96 618.58 392.25 614.29 391.63 613.68 387.34 617.97 383.05 613.68 382.44 614.29 386.73 618.58 382.44 622.87 383.05 623.48"/><polygon class="cls-5" points="383.05 640.82 387.34 636.53 391.63 640.82 392.25 640.21 387.96 635.92 392.25 631.63 391.63 631.01 387.34 635.3 383.05 631.01 382.44 631.63 386.73 635.92 382.44 640.21 383.05 640.82"/><polygon class="cls-5" points="365.72 606.15 370.01 601.86 374.3 606.15 374.91 605.54 370.62 601.25 374.91 596.95 374.3 596.34 370.01 600.63 365.72 596.34 365.11 596.95 369.4 601.25 365.11 605.54 365.72 606.15"/><polygon class="cls-5" points="365.72 623.48 370.01 619.19 374.3 623.48 374.91 622.87 370.62 618.58 374.91 614.29 374.3 613.68 370.01 617.97 365.72 613.68 365.11 614.29 369.4 618.58 365.11 622.87 365.72 623.48"/><polygon class="cls-5" points="365.72 640.82 370.01 636.53 374.3 640.82 374.91 640.21 370.62 635.92 374.91 631.63 374.3 631.01 370.01 635.3 365.72 631.01 365.11 631.63 369.4 635.92 365.11 640.21 365.72 640.82"/><path class="cls-5" d="m597.3,325.12c-10.85,0-19.68-8.83-19.68-19.68s8.83-19.68,19.68-19.68,19.68,8.83,19.68,19.68-8.83,19.68-19.68,19.68Zm0-38.86c-10.58,0-19.18,8.6-19.18,19.18s8.6,19.18,19.18,19.18,19.18-8.6,19.18-19.18-8.6-19.18-19.18-19.18Z"/><path class="cls-5" d="m569.38,626.45c-10.85,0-19.68-8.83-19.68-19.68s8.83-19.68,19.68-19.68,19.68,8.83,19.68,19.68-8.83,19.68-19.68,19.68Zm0-38.86c-10.58,0-19.18,8.6-19.18,19.18s8.6,19.18,19.18,19.18,19.18-8.6,19.18-19.18-8.6-19.18-19.18-19.18Z"/><path class="cls-5" d="m218.75,474.79c-10.85,0-19.68-8.83-19.68-19.68s8.83-19.68,19.68-19.68,19.68,8.83,19.68,19.68-8.83,19.68-19.68,19.68Zm0-38.86c-10.58,0-19.18,8.6-19.18,19.18s8.6,19.18,19.18,19.18,19.18-8.6,19.18-19.18-8.6-19.18-19.18-19.18Z"/><path class="cls-3" d="m617.48,364.13c2.54-2.54,5.92-3.94,9.51-3.94s6.97,1.4,9.51,3.94c2.54,2.54,3.94,5.92,3.94,9.51s-1.4,6.97-3.94,9.51l-3.7-3.7c1.55-1.55,2.41-3.62,2.41-5.81s-.86-4.26-2.41-5.81c-1.55-1.55-3.62-2.41-5.81-2.41s-4.26.86-5.81,2.41l-3.7-3.7Z"/><path class="cls-4" d="m400.61,572.16c2.54-2.54,5.92-3.94,9.51-3.94s6.97,1.4,9.51,3.94c2.54,2.54,3.94,5.92,3.94,9.51s-1.4,6.97-3.94,9.51l-3.7-3.7c1.55-1.55,2.41-3.62,2.41-5.81s-.86-4.26-2.41-5.81c-1.55-1.55-3.62-2.41-5.81-2.41s-4.26.86-5.81,2.41l-3.7-3.7Z"/><path class="cls-6" d="m379.88,352.65c2.54-2.54,5.92-3.94,9.51-3.94s6.97,1.4,9.51,3.94c2.54,2.54,3.94,5.92,3.94,9.51s-1.4,6.97-3.94,9.51l-3.7-3.7c1.55-1.55,2.41-3.62,2.41-5.81s-.86-4.26-2.41-5.81c-1.55-1.55-3.62-2.41-5.81-2.41s-4.26.86-5.81,2.41l-3.7-3.7Z"/><path class="cls-6" d="m611,305.25c-7.55,0-13.7-6.15-13.7-13.7s6.15-13.7,13.7-13.7,13.7,6.15,13.7,13.7-6.14,13.7-13.7,13.7Zm0-21.95c-4.55,0-8.25,3.7-8.25,8.25s3.7,8.25,8.25,8.25,8.25-3.7,8.25-8.25-3.7-8.25-8.25-8.25Z"/><polygon class="cls-3" points="651.48 591.18 719.97 591.18 685.72 559.54 651.48 591.18"/><path class="cls-3" d="m580.48,639.81c-7.55,0-13.7-6.15-13.7-13.7s6.15-13.7,13.7-13.7,13.7,6.15,13.7,13.7-6.14,13.7-13.7,13.7Zm0-21.95c-4.55,0-8.25,3.7-8.25,8.25s3.7,8.25,8.25,8.25,8.25-3.7,8.25-8.25-3.7-8.25-8.25-8.25Z"/></g></svg>