<?xml version="1.0" encoding="UTF-8"?>
<svg xmlns="http://www.w3.org/2000/svg" id="Icons" viewBox="0 0 60 60" width="512" height="512"><path d="M59,32a3,3,0,0,0-6,0v2H24a3,3,0,0,0-2.816,2H19V33a3,3,0,0,0-3-3H7V25a3,3,0,0,0-6,0V53.382A3.984,3.984,0,1,0,7.444,58H52.556A3.985,3.985,0,1,0,59,53.382Zm-3-1a1,1,0,0,1,1,1V52.142A7.09,7.09,0,0,0,55,52V32A1.008,1.008,0,0,1,56,31ZM21,38V48H7V38ZM7,50H53v2H7ZM24,36H53V48H23V37A1,1,0,0,1,24,36Zm-8-4a1,1,0,0,1,1,1v3H7V32ZM4,24a1,1,0,0,1,1,1V52a7.09,7.09,0,0,0-2,.142V25A1.008,1.008,0,0,1,4,24ZM4,58a2,2,0,1,1,2-2A2,2,0,0,1,4,58Zm4-2a3.959,3.959,0,0,0-.556-2H52.556A3.959,3.959,0,0,0,52,56Zm48,2a2,2,0,1,1,2-2A2,2,0,0,1,56,58Z"/><path d="M44.612.854A3.327,3.327,0,0,0,41,.3a3.349,3.349,0,0,0-2,3.09V9.013c-12.439.321-21.111,6.65-22.736,16.681a2.064,2.064,0,0,0,1.026,2.14,2.088,2.088,0,0,0,2.392-.2C22.138,25.587,27.872,22.2,39,22.009v6.6a3.378,3.378,0,0,0,5.612,2.539L58.86,18.539h0a3.4,3.4,0,0,0,0-5.077ZM57.534,17.042l-14.25,12.61a1.328,1.328,0,0,1-1.466.222A1.353,1.353,0,0,1,41,28.609V21a1,1,0,0,0-1-1c-12.414,0-18.859,3.815-21.6,6.091-.019.014-.056.044-.165-.076C19.737,16.753,28.076,11,40,11a1,1,0,0,0,1-1V3.391a1.353,1.353,0,0,1,.819-1.265,1.329,1.329,0,0,1,1.468.224L57.534,14.958a1.4,1.4,0,0,1,0,2.084Z"/></svg>
