<?xml version="1.0"?>
<svg xmlns="http://www.w3.org/2000/svg" id="OUTLINE" viewBox="0 0 48 48" width="512" height="512"><path d="M18.72,16.6a1.65,1.65,0,0,1,1.55-.83c1.23.18,1.29,1,1.28,1.2s-.18.77-1.21.66c-.25,0-1,.1-1,.81a1,1,0,0,0,1.23,1.09c1.07.22,1.6.69,1.68,1.4s-.6,2-2.32,1.29c-.45-.2-.94-1.06-1-1.15a.88.88,0,0,0-1.25-.4,1,1,0,0,0-.4,1.24A4,4,0,0,0,19.34,24a3.44,3.44,0,0,0,3.26-.37,3.38,3.38,0,0,0,1.47-2.79,3,3,0,0,0-1.29-2.33A2.68,2.68,0,0,0,22.6,15a3.09,3.09,0,0,0-2.84-1.12,3.46,3.46,0,0,0-2.5,1.54.9.9,0,0,0,.16,1.3A1,1,0,0,0,18.72,16.6Z"/><path d="M26.53,18.12l.7-.47q0,4.16,0,5.49a1,1,0,1,0,2,.06c0-.63,0-8-.05-8.15s-.08-1-.93-1.12a1.17,1.17,0,0,0-1.07.49,4,4,0,0,1-1,1.59,3.79,3.79,0,0,1-.75.48,1,1,0,0,0-.26,1.36A1,1,0,0,0,26.53,18.12Z"/><path d="M41.2,6H38.79V3a1,1,0,0,0-1-1H33.94a1,1,0,0,0-1,1V6H30.82s0,0,0,0V3a1,1,0,0,0-1-1H26a1,1,0,0,0-1,1V6h-2.1s0,0,0,0V3a1,1,0,0,0-1-1H18a1,1,0,0,0-1,1V6H14.92V3a1,1,0,0,0-1-1H10.07a1,1,0,0,0-1,1V6H7.17A4.17,4.17,0,0,0,3,10.2V40.58a4.17,4.17,0,0,0,4.17,4.17h34a4.17,4.17,0,0,0,4.17-4.17V10.2A4.17,4.17,0,0,0,41.2,6ZM35,31a1,1,0,0,0-1,1v6H7.25A2.17,2.17,0,0,1,5.1,36.16c0-.11-.1-7.72-.1-7.72H43.37V31Zm6.16,2L36,37.16V33ZM34.94,4h1.85V6s0,0,0,0H34.94ZM27,4h1.85V6s0,0,0,0H27ZM19,4h1.85V6H19Zm-8,0h1.85V6s0,0,0,0H11.07ZM7.17,8h1.9V10.4a1,1,0,0,0,2,0V8h6V10.4a1,1,0,0,0,2,0V8H25V10.4a1,1,0,1,0,2,0V8h6V10.4a1,1,0,0,0,2,0V8H41.2a2.17,2.17,0,0,1,2.17,2.17V26.44H5V10.2A2.17,2.17,0,0,1,7.17,8Zm34,34.72h-34C4.62,42.62,5,39.34,5,39.34A4.06,4.06,0,0,0,7.25,40h28a1,1,0,0,0,.63-.22l7.46-6v6.79A2.17,2.17,0,0,1,41.2,42.75Z"/></svg>
