<svg id="layer_1" enable-background="new 0 0 32 32" height="512" viewBox="0 0 32 32" width="512" xmlns="http://www.w3.org/2000/svg"><path d="m25 3.9599609h-1.5v-.9599609c0-.5522461-.4472656-1-1-1s-1 .4477539-1 1v.9599609h-11v-.9599609c0-.5522461-.4472656-1-1-1s-1 .4477539-1 1v.9599609h-1.5c-2.7568359 0-5 2.2431641-5 5v16.0400391c0 2.7568359 2.2431641 5 5 5h18c2.7568359 0 5-2.2431641 5-5v-16.0400391c0-2.7568359-2.2431641-5-5-5zm-21 5c0-1.6542969 1.3457031-3 3-3h1.5v.9594727c0 .5522461.4472656 1 1 1s1-.4477539 1-1v-.9594727h11v.9594727c0 .5522461.4472656 1 1 1s1-.4477539 1-1v-.9594727h1.5c1.6542969 0 3 1.3457031 3 3v1.0097656h-24zm21 19.0400391h-18c-1.6542969 0-3-1.3457031-3-3v-13.0302734h24v13.0302734c0 1.6542969-1.3457031 3-3 3z"/><path d="m21.6988525 19.2723999c-.0002441-.0002441-.0003662-.0006714-.0006104-.0009155l-3.1640625-3.1005859c-.3955078-.3852539-1.0283203-.3818359-1.4140625.0146484-.3867188.3945312-.3808594 1.0273438.0136719 1.4140625l1.4146729 1.3857422h-7.5484619c-.5527344 0-1 .4472656-1 1s.4472656 1 1 1h7.5484619l-1.4146729 1.3857422c-.3945312.3857422-.4003906 1.0195312-.0136719 1.4140625.1953125.1992188.4541016.2998047.7138672.2998047.2529297 0 .5048828-.0947266.7001953-.2861328l3.1640625-3.0996094c.0002441-.0002441.0003662-.0006714.0006104-.0009155.1851197-.1814576.3011475-.4329224.3011475-.7129517s-.1160278-.5314942-.3011475-.7129517z"/></svg>