<?xml version="1.0" encoding="utf-8"?>
<svg viewBox="654.4719 770.987 761.5012 1050.1198" width="761.5012" height="1050.1198" xmlns="http://www.w3.org/2000/svg">
  <path d="m 5540.01,10219.1 h 4448.4 c 347.19,0 631.39,-283.98 631.39,-631.18 V 3473.2 c 0,-347.2 -284.2,-631.5 -631.39,-631.5 h -4448.4 c -347.25,0 -631.47,284.3 -631.47,631.5 v 6114.72 c 0,347.2 284.22,631.18 631.47,631.18 v 0" style="fill:#5c9ead;fill-opacity:1;fill-rule:evenodd;stroke:none" id="path168" transform="matrix(0.13333332737286874, 0, 0, -0.13333332737286874, 0, 2200)"/>
  <path d="m 5540.01,10040.5 h 4448.4 c 249.19,0 452.89,-203.64 452.89,-452.58 V 3473.2 c 0,-249.2 -203.7,-452.9 -452.89,-452.9 h -4448.4 c -249.26,0 -452.99,203.7 -452.99,452.9 v 6114.72 c 0,248.94 203.73,452.58 452.99,452.58 v 0" style="fill:#ccdff4;fill-opacity:1;fill-rule:evenodd;stroke:none" id="path170" transform="matrix(0.13333332737286874, 0, 0, -0.13333332737286874, 0, 2200)"/>
  <path d="m 9910.12,10089.2 -4788.71,-383 483.35,-6040.5 4788.74,383.4 -483.38,6040.1" style="fill:#ffffff;fill-opacity:1;fill-rule:evenodd;stroke:none" id="path172" transform="matrix(0.13333332737286874, 0, 0, -0.13333332737286874, 0, 2200)"/>
  <path d="m 5832.25,7896.07 3663.87,293.32 c 65.04,5.14 122.33,-43.53 127.49,-108.52 5.16,-64.82 -43.54,-122.08 -108.58,-127.26 L 5851.16,7660.23 c -64.97,-5.13 -122.35,43.87 -127.51,108.58 -5.16,64.82 43.56,122.09 108.6,127.26 z m 37.52,-471.67 3664.17,293.42 c 65.03,5.19 122.32,-43.82 127.49,-108.58 5.15,-64.77 -43.84,-122.03 -108.58,-127.17 L 5888.68,7188.71 c -64.74,-5.19 -122.06,43.44 -127.22,108.53 -5.15,64.71 43.57,122.08 108.31,127.16 z m 37.84,-471.58 3664.14,293.42 c 64.74,5.19 122.06,-43.81 127.21,-108.62 5.16,-64.77 -43.54,-122.03 -108.3,-127.17 L 5926.51,6717.03 c -64.76,-5.09 -122.05,43.63 -127.21,108.58 -5.16,64.76 43.54,122.03 108.31,127.21 z m 37.81,-471.62 3664.15,293.19 c 64.76,5.41 122.05,-43.59 127.21,-108.31 5.16,-65.03 -43.54,-122.03 -108.58,-127.56 L 5964.33,6245.4 c -65.04,-5.1 -122.35,43.6 -127.51,108.7 -5.16,64.7 43.56,122 108.6,127.1 z m 37.81,-471.5 3663.88,293 c 65.03,5.2 122.35,-43.5 127.48,-108.2 5.16,-65.1 -43.54,-122.4 -108.57,-127.5 L 6001.87,5773.9 c -64.77,-5.2 -122.08,43.5 -127.15,108.6 -5.22,64.7 43.47,122 108.51,127.2 z m 496.6,2461.37 2285.68,182.77 c 64.76,5.14 122.05,-43.56 127.21,-108.25 5.16,-65.07 -43.54,-122.33 -108.51,-127.53 L 6498.67,8235.25 c -64.76,-5.15 -122.05,43.57 -127.21,108.31 -5.16,65.04 43.54,122.38 108.37,127.51 v 0" style="fill:#ccdff4;fill-opacity:1;fill-rule:evenodd;stroke:none" id="path178" transform="matrix(0.13333332737286874, 0, 0, -0.13333332737286874, 0, 2200)"/>
  <path d="m 7764.17,10568.6 c 61.02,0 110.59,-49.6 110.59,-110.6 0,-61 -49.57,-110.3 -110.59,-110.3 -61.03,0 -110.6,49.3 -110.6,110.3 0,61 49.57,110.6 110.6,110.6 z m -854.94,-228.4 h 605.38 v 127.9 c 0,137.2 112.33,249.5 249.56,249.5 137.24,0 249.55,-112.3 249.55,-249.5 v -127.9 h 605.46 c 82.72,0 150.62,-67.8 150.62,-150.6 v -142.2 c 0,-82.76 -67.9,-150.71 -150.62,-150.71 H 6909.23 c -82.8,0 -150.7,67.95 -150.7,150.71 v 142.2 c 0,82.8 67.6,150.6 150.7,150.6 v 0" style="fill:#3d7e91;fill-opacity:1;fill-rule:evenodd;stroke:none" id="path180" transform="matrix(0.13333332737286874, 0, 0, -0.13333332737286874, 0, 2200)"/>
</svg>