<svg id="Layer_1" enable-background="new 0 0 480.065 480.065" height="512" viewBox="0 0 480.065 480.065" width="512" xmlns="http://www.w3.org/2000/svg"><g><path d="m414.033 66.039c-88.043-88.042-230.543-88.043-318.585 0-65.571 65.571-81.241 159.721-51.672 238.471 1.552 4.136 6.165 6.229 10.301 4.677 4.136-1.553 6.23-6.165 4.677-10.302-8.817-23.484-13.289-48.231-13.289-73.553 0-115.395 93.88-209.274 209.274-209.274 115.395 0 209.274 93.88 209.274 209.274 0 120.32-102.178 217.426-224.369 208.731l-92.523-160.255c-10.781-18.672-37.717-18.672-48.498 0l-5.061 8.766c-6.513-18.292-9.821-37.478-9.821-57.243 0-94.289 76.709-170.998 170.997-170.998 94.289 0 170.998 76.709 170.998 170.998 0 90.476-70.679 165.458-160.907 170.705-4.41.256-7.778 4.04-7.521 8.451.258 4.449 4.097 7.79 8.451 7.521 98.679-5.738 175.978-87.736 175.978-186.678 0-103.111-83.887-186.998-186.998-186.998-103.11 0-186.997 83.887-186.997 186.998 0 26.085 5.259 51.263 15.621 74.91l-79.567 137.818c-10.782 18.672 2.688 42 24.249 42h189.659c16.763 0 28.914-14.247 27.99-29.642 63.309 2.5 123.539-20.99 168.34-65.791 88.042-88.042 88.042-230.543-.001-318.586zm-196.33 398.019h-189.659c-9.24 0-15.013-9.998-10.392-18l94.829-164.249c4.621-8.002 16.165-8.003 20.785 0l94.829 164.249c4.621 8.002-1.152 18-10.392 18z"/><path d="m246.74 80.2v115.728c-12.935 3.524-22.477 15.368-22.477 29.404 0 16.805 13.672 30.477 30.477 30.477 14.036 0 25.88-9.541 29.404-22.477h58.548c10.584 0 10.584-16 0-16h-58.548c-2.829-10.384-11.02-18.575-21.404-21.404v-115.728c0-10.584-16-10.584-16 0zm22.477 145.132c0 7.982-6.494 14.477-14.477 14.477-7.982 0-14.477-6.494-14.477-14.477s6.494-14.477 14.477-14.477c7.983.001 14.477 6.495 14.477 14.477z"/><path d="m130.163 144.17c-3.826-2.209-8.719-.898-10.928 2.928-2.209 3.827-.898 8.719 2.928 10.929 3.826 2.209 8.719.898 10.928-2.929 2.21-3.826.899-8.719-2.928-10.928z"/><path d="m335.902 100.755c2.209-3.826.898-8.719-2.928-10.928s-8.719-.898-10.928 2.928-.898 8.719 2.928 10.928c3.827 2.209 8.719.898 10.928-2.928z"/><path d="m324.974 346.981c-3.826 2.209-5.137 7.102-2.928 10.928s7.102 5.137 10.928 2.928 5.137-7.102 2.928-10.928c-2.209-3.827-7.101-5.137-10.928-2.928z"/><path d="m379.317 306.494c3.826 2.209 8.719.898 10.928-2.929 2.209-3.826.898-8.719-2.928-10.928s-8.719-.898-10.928 2.928c-2.209 3.827-.898 8.72 2.928 10.929z"/><path d="m387.317 158.027c3.826-2.209 5.137-7.102 2.928-10.929-2.209-3.826-7.102-5.137-10.928-2.928s-5.137 7.102-2.928 10.928c2.209 3.827 7.102 5.138 10.928 2.929z"/><path d="m176.506 89.827c-3.826 2.209-5.137 7.102-2.928 10.928s7.102 5.137 10.928 2.928 5.137-7.102 2.928-10.928-7.101-5.137-10.928-2.928z"/><circle cx="254.74" cy="373.8" r="8"/><circle cx="403.208" cy="225.332" r="8"/><circle cx="106.273" cy="225.332" r="8"/><path d="m130.873 393.812v-40.903c0-10.585-16-10.585-16 0v40.903c0 10.584 16 10.584 16 0z"/><circle cx="122.874" cy="421.07" r="8"/></g></svg>