<svg id="Layer_1" enable-background="new 0 0 512 512" viewBox="0 0 512 512" xmlns="http://www.w3.org/2000/svg"><path clip-rule="evenodd" d="m126.164 248.163c4.418 0 8 3.582 8 8s-3.582 8-8 8h-9.479c-4.418 0-8-3.582-8-8s3.582-8 8-8zm-40.293-158.365 4.311-29.16c.638-4.366-2.384-8.424-6.75-9.062s-8.424 2.384-9.062 6.75l-8.271 55.945c-.939 5.644 4.304 10.532 9.946 9.025l54.711-14.659c4.263-1.139 6.795-5.518 5.656-9.781s-5.519-6.795-9.781-5.656l-29.515 7.908c17.617-18.058 38.274-33.121 61.142-44.354 84.762-41.637 187.749-24.544 254.725 42.432 86.722 86.721 86.724 227.233.001 313.956-86.217 86.217-227.74 86.217-313.956 0-40.173-40.173-65.022-95.674-65.022-156.978 0-4.418-3.582-8-8-8s-8 3.582-8 8c0 65.72 26.64 125.221 69.709 168.291 92.432 92.432 244.15 92.432 336.581 0 92.93-92.93 92.932-243.649-.001-336.581-71.864-71.867-182.12-90.094-273.037-45.434-24.459 12.015-46.55 28.097-65.387 47.358zm170.134-10.977c-97.942 0-177.342 79.4-177.342 177.342s79.401 177.342 177.342 177.342 177.342-79.4 177.342-177.342-79.4-177.342-177.342-177.342zm114.087 63.255c-63.007-63.007-165.166-63.007-228.173 0s-63.006 165.166 0 228.173c63.007 63.007 165.166 63.007 228.173 0s63.007-165.166 0-228.173zm-122.087 19.932c0-4.418 3.582-8 8-8s8 3.582 8 8v76.107c12.604 5.597 15.786 22.175 5.956 32.005s-26.408 6.648-32.005-5.956h-47.115c-4.418 0-8-3.582-8-8s3.582-8 8-8h47.115c1.985-4.471 5.578-8.063 10.049-10.048zm16-35.686c0 4.418-3.582 8-8 8s-8-3.582-8-8v-9.479c0-4.418 3.582-8 8-8s8 3.582 8 8zm89.468 43.686c-3.124 3.124-8.189 3.124-11.313 0s-3.124-8.189 0-11.313l6.703-6.702c3.124-3.124 8.189-3.124 11.313 0s3.124 8.189 0 11.313zm-11.313 183.623c-3.124-3.124-3.124-8.189 0-11.313s8.189-3.124 11.313 0l6.703 6.703c3.124 3.124 3.124 8.189 0 11.313s-8.189 3.124-11.313 0zm-183.622-11.312c3.124-3.124 8.189-3.124 11.313 0s3.124 8.189 0 11.313l-6.703 6.702c-3.124 3.124-8.189 3.124-11.313 0s-3.124-8.189 0-11.313zm11.312-183.624c3.124 3.124 3.124 8.189 0 11.313s-8.189 3.124-11.313 0l-6.702-6.702c-3.124-3.124-3.124-8.189 0-11.313s8.189-3.124 11.313 0zm215.997 105.468c-4.418 0-8-3.582-8-8s3.582-8 8-8h9.479c4.418 0 8 3.582 8 8s-3.582 8-8 8zm-137.842 121.842c0-4.418 3.582-8 8-8s8 3.582 8 8v9.479c0 4.418-3.582 8-8 8s-8-3.582-8-8z" fill-rule="evenodd"/></svg>