<svg clip-rule="evenodd" fill-rule="evenodd" stroke-linejoin="round" stroke-miterlimit="2" viewBox="0 0 510 510" xmlns="http://www.w3.org/2000/svg"><path d="m342.6 454.805v40.195c0 4.418-3.582 8-8 8h-307.48c-4.418 0-8-3.582-8-8v-398.506c0-4.418 3.582-8 8-8h40.236v-40.235c0-4.418 3.581-8 8-8h17.876c1.575-7.964 5.478-15.35 11.302-21.175 7.738-7.737 18.232-12.084 29.175-12.084h.003c10.942 0 21.437 4.347 29.174 12.084 5.825 5.825 9.728 13.211 11.302 21.175h158.839c2.103 0 4.144.829 5.659 2.345l49.809 49.849c1.513 1.515 2.34 3.554 2.34 5.654v348.698c0 4.418-3.581 8-8 8zm-250.15-350.311h-57.33v382.506h291.48v-332.698h-41.808c-4.418 0-8-3.581-8-8v-41.808h-118.534v9.819c0 18.172-14.732 32.903-32.904 32.903s-32.904-14.731-32.904-32.903zm0-48.235h-9.094v32.235h9.094zm65.22-16c-1.229-3.681-3.302-7.065-6.097-9.861-4.737-4.737-11.162-7.398-17.861-7.398h-.003c-6.7 0-13.124 2.661-17.861 7.398-2.796 2.796-4.869 6.18-6.098 9.861zm167.357 16h-216.577v32.235h33.808v-10.987c0-4.416 3.584-8 8-8 4.415 0 8 3.584 8 8v10.987h126.534c2.101 0 4.142.828 5.657 2.343l49.808 49.809c1.515 1.515 2.343 3.555 2.343 5.656v292.503h32.235v-332.698h-41.808c-4.418 0-8-3.581-8-8zm38.506 33.848-22.506-22.523v22.523zm-70.741 25.701v22.494h22.494zm-184.342-11.314v9.819c0 9.335 7.568 16.903 16.904 16.903 9.335 0 16.904-7.568 16.904-16.903v-9.819zm-18.575 284.209c-4.416 0-8-3.584-8-8 0-4.415 3.584-8 8-8h182.011c4.415 0 8 3.585 8 8 0 4.416-3.585 8-8 8zm172.679-115.56c-8.297 37.468-41.744 65.527-81.694 65.527-46.178 0-83.67-37.491-83.67-83.67s37.492-83.67 83.67-83.67c23.705 0 45.121 9.877 60.351 25.74 3.058 3.184 2.955 8.253-.23 11.311s-8.253 2.955-11.311-.23c-12.318-12.829-29.638-20.821-48.81-20.821-37.348 0-67.67 30.322-67.67 67.67s30.322 67.67 67.67 67.67c31.85 0 58.591-22.052 65.773-51.707l-7.163 7.345c-3.083 3.161-8.152 3.225-11.313.142s-3.225-8.152-.142-11.313l24.566-25.19c1.794-1.84 4.363-2.706 6.905-2.328 2.541.378 4.747 1.954 5.928 4.236l16.171 31.25c2.029 3.922.493 8.753-3.428 10.782-3.922 2.029-8.753.493-10.782-3.428 0 0-2.31-4.465-4.821-9.316zm-172.679 169.2c-4.416 0-8-3.585-8-8s3.584-8 8-8h182.011c4.415 0 8 3.585 8 8s-3.585 8-8 8zm82.985-187.343v-40.402c0-4.415 3.585-8 8-8s8 3.585 8 8v32.402h28.57c4.415 0 8 3.585 8 8s-3.585 8-8 8h-36.57c-4.415 0-8-3.585-8-8zm236.722 96.733.045-276.258c-.018-19.377 15.752-35.196 35.152-35.183l10.881-.033h.016c19.376-.019 35.185 15.82 35.204 35.196v.008l-.025 276.304c0 1.405-.37 2.784-1.072 4l-32.63 56.508c-1.429 2.475-4.07 4-6.928 4s-5.499-1.525-6.928-4l-32.643-56.541c-.709-1.227-1.072-2.608-1.072-4.001zm16.039-236.519-.038 228.52h49.273l.02-228.52zm49.257-16 .002-23.745c-.012-10.566-8.618-19.218-19.184-19.21l-10.877.033c-.012 0-.024 0-.036 0-10.573-.016-19.166 8.608-19.156 19.167v.009l-.003 23.746zm-43.44 260.52 18.788 32.542 18.79-32.542z"/></svg>