<svg enable-background="new 0 0 512 512" viewBox="0 0 512 512" xmlns="http://www.w3.org/2000/svg"><g id="_x31_0_Hospital_Bed"><g><path d="m46.088 331.654h422.773c20.274 0 36.765-16.493 36.765-36.765v-86.236c0-17.927-14.583-32.51-32.51-32.51-17.922 0-32.505 14.583-32.505 32.51v53.943h-279.227c-3.231-28.638-27.573-50.976-57.058-50.976h-32.936v-74.576c0-20.22-18.47-35.77-38.667-31.924-15.266 2.906-26.349 16.789-26.349 33.011v153.809c0 21.898 17.816 39.714 39.714 39.714zm58.238-107.085c22.338 0 40.887 16.546 44.029 38.027h-76.965v-38.027zm-85.002-86.438c0-9.851 6.799-18.575 15.818-20.289 12.273-2.339 23.299 7.149 23.299 19.202v132.027c0 3.576 2.898 6.475 6.475 6.475h382.169c3.576 0 6.475-2.898 6.475-6.475v-60.418c0-10.787 8.771-19.561 19.556-19.561s19.561 8.774 19.561 19.561v86.236c0 13.132-10.683 23.815-23.815 23.815h-422.774c-14.755 0-26.764-12.006-26.764-26.764z" fill="#434b63"/><path d="m474.354 499.452c0-3.576-2.898-6.475-6.475-6.475h-75.359c2.419-4.003 3.894-8.637 3.894-13.643 0-12.435-8.601-22.823-20.143-25.743v-26.404c13.29-2.964 23.264-14.83 23.264-29.001v-47.086c0-3.576-2.898-6.475-6.475-6.475-3.576 0-6.475 2.898-6.475 6.475v47.086c0 9.254-7.527 16.781-16.784 16.781-9.112 0-16.784-7.417-16.784-16.781v-47.086c0-3.576-2.898-6.475-6.475-6.475-3.576 0-6.475 2.898-6.475 6.475v47.086c0 14.464 10.185 26.073 23.254 28.971v26.425c-11.538 2.909-20.138 13.306-20.138 25.752 0 5.005 1.473 9.64 3.887 13.643h-202.124c2.419-4.003 3.894-8.637 3.894-13.643 0-12.433-8.598-22.82-20.138-25.741v-26.412c13.276-2.973 23.233-14.833 23.233-28.994v-47.086c0-3.576-2.898-6.475-6.475-6.475s-6.475 2.898-6.475 6.475v47.086c0 22.449-33.512 21.954-33.512 0v-47.086c0-3.576-2.898-6.475-6.475-6.475-3.576 0-6.475 2.898-6.475 6.475v47.086c0 14.125 9.8 26.014 23.228 28.978v26.415c-11.54 2.907-20.143 13.306-20.143 25.754 0 5.005 1.473 9.64 3.887 13.643h-75.35c-3.576 0-6.475 2.898-6.475 6.475 0 3.576 2.898 6.475 6.475 6.475h443.735c3.576 0 6.474-2.899 6.474-6.475zm-118.22-20.117c0-7.547 6.121-13.688 13.643-13.688 7.547 0 13.688 6.141 13.688 13.688 0 7.522-6.141 13.643-13.688 13.643-7.522-.001-13.643-6.122-13.643-13.643zm-247.574 0c0-7.547 6.121-13.688 13.643-13.688 7.547 0 13.688 6.141 13.688 13.688 0 7.522-6.141 13.643-13.688 13.643-7.523-.001-13.643-6.122-13.643-13.643z" fill="#434b63"/><path d="m172.048 106.412c0 55.329 45.01 100.341 100.339 100.341s100.339-45.012 100.339-100.341c0-55.327-45.01-100.339-100.339-100.339s-100.339 45.013-100.339 100.339zm187.728 0c0 48.189-39.203 87.392-87.389 87.392s-87.389-39.203-87.389-87.392c0-48.187 39.203-87.389 87.389-87.389s87.389 39.203 87.389 87.389z" fill="#f19220"/><path d="m249.108 72.394v10.739h-10.739c-12.851 0-23.279 10.378-23.279 23.279 0 12.836 10.441 23.279 23.279 23.279h10.739v10.739c0 12.845 10.368 23.279 23.279 23.279 12.838 0 23.279-10.443 23.279-23.279v-10.739h10.739c12.848 0 23.279-10.378 23.279-23.279 0-12.836-10.441-23.279-23.279-23.279h-10.739v-10.739c0-12.899-10.429-23.279-23.279-23.279-12.839 0-23.279 10.444-23.279 23.279zm33.608 0v17.214c0 3.576 2.898 6.475 6.475 6.475h17.214c5.696 0 10.329 4.634 10.329 10.329 0 5.764-4.654 10.329-10.329 10.329h-17.214c-3.576 0-6.475 2.898-6.475 6.475v17.214c0 5.696-4.634 10.329-10.329 10.329-5.733 0-10.329-4.615-10.329-10.329v-17.214c0-3.576-2.898-6.475-6.475-6.475h-17.214c-5.696 0-10.329-4.634-10.329-10.329 0-5.721 4.609-10.329 10.329-10.329h17.214c3.576 0 6.475-2.898 6.475-6.475v-17.214c0-5.696 4.634-10.329 10.329-10.329 5.682 0 10.329 4.574 10.329 10.329z" fill="#434b63"/></g></g><g id="Layer_1"/></svg>