<svg height="512" viewBox="0 0 512 512" width="512" xmlns="http://www.w3.org/2000/svg"><g id="filled_outline" data-name="filled outline"><path d="m376 272h-144l12.549-87.841a28.138 28.138 0 0 1 27.851-24.159h63.2a28.138 28.138 0 0 1 27.855 24.159z" fill="#38b295"/><path d="m340.478 112h-72.956a15.486 15.486 0 0 1 -14.833-11.036 53.57 53.57 0 0 1 51.311-68.964 53.57 53.57 0 0 1 51.311 68.963 15.486 15.486 0 0 1 -14.833 11.037z" fill="#534741"/><path d="m288 151h32a0 0 0 0 1 0 0v16a16 16 0 0 1 -16 16 16 16 0 0 1 -16-16v-16a0 0 0 0 1 0 0z" fill="#efb696"/><path d="m304 152a40 40 0 0 1 -40-40v-17.677a5.933 5.933 0 0 1 10.128-4.195 10.131 10.131 0 0 0 12.782 1.266l17.09-11.394 3.47 6.94a10.129 10.129 0 0 0 13.59 4.53l14.354-7.177a5.933 5.933 0 0 1 8.586 5.307v22.4a40 40 0 0 1 -40 40z" fill="#efb696"/><path d="m352 192h48v64h-48z" fill="#998675" transform="matrix(.989 .149 -.149 .989 37.628 -53.59)"/><path d="m75.724 252.889h52.164a27.666 27.666 0 0 1 27.666 27.666 12.334 12.334 0 0 1 -12.334 12.334h-81.889a0 0 0 0 1 0 0v-25.608a14.393 14.393 0 0 1 14.393-14.393z" fill="#534741" transform="matrix(.177 -.984 .984 .177 -179.327 331.342)"/><path d="m213.09 296.89-3.39 23.76-89.7-.65 4.79-27.21c1.52-10.69 4.74-21.6 1.33-31.86l-6.12-18.35 43.32 6.79a24 24 0 0 1 20.36 27.15l-2.26 15.84.37.05 9.91 1.42z" fill="#f5c199"/><rect fill="#f2f2f2" height="128" rx="16" transform="matrix(0 -1 1 0 -200 456)" width="32" x="112" y="264"/><path d="m237.112 254h26.361a34.527 34.527 0 0 1 34.527 34.527v65.473a0 0 0 0 1 0 0h-80a0 0 0 0 1 0 0v-80.888a19.112 19.112 0 0 1 19.112-19.112z" fill="#bd9fca" transform="matrix(0 -1 1 0 -46 562)"/><path d="m48 368h24a0 0 0 0 1 0 0v107.33a4.67 4.67 0 0 1 -4.67 4.67h-14.66a4.67 4.67 0 0 1 -4.67-4.67v-107.33a0 0 0 0 1 0 0z" fill="#666"/><path d="m440 368h24a0 0 0 0 1 0 0v107.33a4.67 4.67 0 0 1 -4.67 4.67h-14.66a4.67 4.67 0 0 1 -4.67-4.67v-107.33a0 0 0 0 1 0 0z" fill="#666"/><path d="m479 344h-455v23a9 9 0 0 0 9 9h446a9 9 0 0 0 9-9v-14a9 9 0 0 0 -9-9z" fill="#999"/><path d="m480 289.375v57.519a5.106 5.106 0 0 1 -5.106 5.106h-165.788a5.106 5.106 0 0 1 -5.106-5.106v-82.31a8.584 8.584 0 0 1 8.584-8.584h134.041a33.376 33.376 0 0 1 33.375 33.375z" fill="#f2f2f2"/><path d="m299.553 283.553h31.893a0 0 0 0 1 0 0v77a12 12 0 0 1 -12 12h-7.893a12 12 0 0 1 -12-12v-77a0 0 0 0 1 0 0z" fill="#f5c199" transform="matrix(0 -1 1 0 -12.553 643.553)"/><path d="m272 304v40h-8l-32-8v-32z" fill="#bd9fca"/><g fill="#333"><path d="m488 340h-4v-50.62a37.423 37.423 0 0 0 -37.38-37.38h-46.52l8.366-55.463a4 4 0 0 0 -3.359-4.552l-37.3-5.626-.4-2.765a32.254 32.254 0 0 0 -19.773-25.236 3.975 3.975 0 0 0 -5.782-1.725 32.051 32.051 0 0 0 -6.252-.633h-11.6v-4.828a44.07 44.07 0 0 0 23.81-35.172h4.19a4 4 0 0 0 3.832-2.851l3.309-11.04a57.477 57.477 0 0 0 -55.141-74.109 57.571 57.571 0 0 0 -55.142 74.109l3.31 11.04a4 4 0 0 0 3.832 2.851h4.19a44.07 44.07 0 0 0 23.81 35.172v4.828h-11.6a32 32 0 0 0 -6.269.636 3.956 3.956 0 0 0 -5.767 1.727 32.208 32.208 0 0 0 -19.774 25.231l-11.249 78.732a38.629 38.629 0 0 0 -24.718 29.309l-18.678-2.669 1.695-11.882a28.042 28.042 0 0 0 -23.754-31.674l-27.786-3.97a17.531 17.531 0 0 0 .18-1.99 16.406 16.406 0 0 0 -14.025-16.15 31.662 31.662 0 0 0 -35.82 26.847l-8.7 57.991a19.951 19.951 0 0 0 -13.697 31.862h-36.038v-140a4 4 0 0 0 -8 0v176a4 4 0 0 0 4 4h20v100a4 4 0 0 0 4 4h24a4 4 0 0 0 4-4v-44h360v44a4 4 0 0 0 4 4h24a4 4 0 0 0 4-4v-100h20a4 4 0 0 0 4-4v-32a4 4 0 0 0 -4-4zm-12-50.62v58.62h-131v-.051a19.987 19.987 0 0 0 -1-39.949h-36v-43.42a4.586 4.586 0 0 1 4.58-4.58h134.04a29.414 29.414 0 0 1 29.38 29.38zm-200 26.62h68a12 12 0 0 1 0 24h-68zm116.009-64h-40.465l8.854-58.668 39.56 5.966zm-132.009-157.677v13.677h-1.023l-2.456-8.189a49.582 49.582 0 1 1 97.079-14.341 49.906 49.906 0 0 1 -2.121 14.341l-2.456 8.189h-1.023v-18.4a9.933 9.933 0 0 0 -14.375-8.885l-14.354 7.177a6.138 6.138 0 0 1 -8.224-2.741l-3.469-6.94a4 4 0 0 0 -5.8-1.539l-17.09 11.393a6.143 6.143 0 0 1 -7.734-.766 9.933 9.933 0 0 0 -16.954 7.024zm8 17.677v-17.677a1.866 1.866 0 0 1 1.193-1.785 2.071 2.071 0 0 1 .78-.159 1.827 1.827 0 0 1 1.326.578 14.169 14.169 0 0 0 17.829 1.765l13.321-8.88 1.443 2.887a14.145 14.145 0 0 0 18.957 6.318l14.351-7.176a1.933 1.933 0 0 1 2.8 1.729v22.4a36 36 0 0 1 -72 0zm36 44a43.863 43.863 0 0 0 12-1.677v13.677a12 12 0 0 1 -24 0v-13.677a43.863 43.863 0 0 0 12 1.677zm-55.491 28.727a24.2 24.2 0 0 1 13.411-18.316l14.285 42.854c0 .011.01.021.014.032a20.426 20.426 0 0 0 -10.4 24.814l2.385 7.154a4 4 0 1 0 7.59-2.53l-2.385-7.153a12.444 12.444 0 0 1 8.787-16.008 12.506 12.506 0 0 1 14.824 8.137l3.184 9.554a4 4 0 1 0 7.59-2.53l-3.185-9.554a20.555 20.555 0 0 0 -20.7-13.925 3.989 3.989 0 0 0 -.117-.521l-14.186-42.558c.928-.108 14.394-.177 14.394-.177v4a20 20 0 0 0 40 0v-4s13.926.086 15.07.252l-6.992 34.963a4 4 0 1 0 7.844 1.57l6.809-34.043a24.231 24.231 0 0 1 12.76 17.987l.055.384-1.909-.288a4 4 0 0 0 -4.552 3.358l-9.55 63.28-30.955.537a12.59 12.59 0 0 0 -11.7 8h-58.35a38.871 38.871 0 0 0 -4.82.316zm-36.438 111.711a30.505 30.505 0 0 1 30.459-28.438h57.47v40h-24v-4a4 4 0 0 0 -4-4h-24a4 4 0 0 0 0 8h20v32h-40.89a15.126 15.126 0 0 1 -15.11-15.1c.012-10.9.042-27.491.071-28.462zm-2.425 43.562h-17.684a19.755 19.755 0 0 0 3.284-17.374l8.754 1.253v1.011a23 23 0 0 0 5.646 15.11zm-29.926-64.045-2.26 15.84a4 4 0 0 0 3.394 4.525l23.2 3.315c-.018 3.853-.032 10.122-.041 16.164l-13.942-1.994a19.931 19.931 0 0 0 -14.071-5.805h-49.35l2.195-15.384a73.933 73.933 0 0 0 -3.14-32.949l-4.066-12.213 41.113 5.876a20.03 20.03 0 0 1 16.968 22.625zm-85.37-24.649a23.665 23.665 0 0 1 26.773-20.087 8.366 8.366 0 0 1 7.156 8.148c-.013.172-.051.513-.1.941l-11.813-1.688a4 4 0 0 0 -4.36 5.224l6.111 18.352a65.858 65.858 0 0 1 2.809 29.3l-2.3 16.139-32.781.365zm-26.35 76.694a12.013 12.013 0 0 1 12-12h96a12 12 0 0 1 0 24h-96a12.013 12.013 0 0 1 -12-12zm-16 148v-96h16v96zm24-48v-48h360v48zm384 48h-16v-96h16zm24-104h-456v-24h272v4a4 4 0 0 0 4 4h176a4 4 0 0 0 4-4z"/><circle cx="145.461" cy="272.922" r="5.342"/><circle cx="285.286" cy="109.286" r="5.286"/><circle cx="322.714" cy="109.286" r="5.286"/><path d="m314.829 130.829a4 4 0 1 0 -5.658-5.658 7.32 7.32 0 0 1 -10.342 0 4 4 0 1 0 -5.658 5.658 15.333 15.333 0 0 0 21.658 0z"/></g></g></svg>