<svg id="Outline" height="512" viewBox="0 0 64 64" width="512" xmlns="http://www.w3.org/2000/svg"><g><path d="m55.993 2.999-12.657.001c-3.348-1.905-7.216-3-11.336-3-12.682 0-23 10.317-23 23h-6.942c-.554 0-1.09.232-1.47.639-.375.4-.57.941-.534 1.484.206 3.148.88 6.189 1.946 9.057v27.82c0 1.103.897 2 2 2h56c1.103 0 2-.897 2-2v-27.9c1.297-3.496 2-7.244 2-11.1 0-6.988-2.212-13.628-6.399-19.202-.376-.5-.978-.799-1.608-.799zm.009 2.001c.489.651.95 1.319 1.381 2h-8.883c-.692-.713-1.429-1.381-2.207-2zm-10.447 53h-27.11l7.312-26h12.485zm3.664 2 .5 2h-35.438l.5-2zm-9.051-28.541c-.241-.858-1.033-1.459-1.925-1.459h-12.486c-.893 0-1.684.601-1.925 1.459l-.669 2.378c-3.248-2.648-5.163-6.597-5.163-10.837 0-7.72 6.28-14 14-14s14 6.28 14 14c0 3.059-.968 5.963-2.799 8.4-.332.441-.243 1.068.199 1.4.442.331 1.069.242 1.4-.199 2.094-2.786 3.2-6.106 3.2-9.601 0-7.037-4.573-13.015-10.898-15.151 1.825-.911 3.158-2.295 3.667-3.905 7.207 3.33 12.231 10.609 12.231 19.056 0 7.407-3.863 14.183-10.154 17.98zm-1.263-28.269c-.536 2.125-3.475 3.81-6.905 3.81s-6.369-1.685-6.905-3.81c2.166-.757 4.484-1.19 6.905-1.19s4.739.433 6.905 1.19zm-15.674.753c.508 1.61 1.842 2.994 3.667 3.905-6.325 2.137-10.898 8.115-10.898 15.152 0 5.138 2.447 9.912 6.576 12.924l-1.422 5.056c-6.291-3.797-10.154-10.573-10.154-17.98 0-8.447 5.024-15.726 12.231-19.057zm-14.135 21.057c.058.674.148 1.34.264 2h-7.103c-.087-.661-.156-1.328-.2-2zm-5.096 13.55c2.864 5.151 7.151 9.489 12.516 12.461.153.085.319.125.483.125.352 0 .693-.186.876-.516.268-.483.093-1.092-.391-1.359-7.799-4.32-13.168-11.717-14.89-20.261h7.204c1.572 5.842 5.409 10.882 10.799 13.963l-4.23 15.037h-2.367c-.459 0-.859.312-.97.758l-.811 3.242h-8.219zm56 23.45h-8.219l-.811-3.242c-.111-.446-.511-.758-.97-.758h-2.367l-1.74-6.187c6.071-2.933 10.954-7.638 14.107-13.341zm-14.658-12.145-1.938-6.892c7.168-4.098 11.596-11.667 11.596-19.963 0-5.265-1.782-10.119-4.77-14h8.31c2.272 4.287 3.46 9.049 3.46 14 0 11.399-6.507 21.803-16.658 26.855z"/><path d="m36 34h-8c-.477 0-.887.337-.98.804l-1 5c-.059.294.017.599.207.83s.473.366.773.366h10c.3 0 .583-.135.773-.366s.266-.536.207-.83l-1-5c-.093-.467-.503-.804-.98-.804zm-7.78 5 .6-3h6.36l.6 3z"/><circle cx="14" cy="20" r="1"/><circle cx="14" cy="24" r="1"/><circle cx="50" cy="20" r="1"/><circle cx="50" cy="24" r="1"/></g></svg>