<svg id="Layer_1" enable-background="new 0 0 479.808 479.808" height="512" viewBox="0 0 479.808 479.808" width="512" xmlns="http://www.w3.org/2000/svg"><path d="m466.849 276.916-13.173 16.352c-6.626 8.226-9.986 18.567-9.46 29.116l1.046 20.972c1.371 27.506-16.928 52.692-43.511 59.887l-20.269 5.486c-10.196 2.76-18.992 9.15-24.768 17.995l-11.48 17.581c-15.052 23.05-44.659 32.683-70.401 22.875l-19.622-7.475c-9.872-3.761-20.744-3.761-30.615 0l-19.622 7.475c-25.737 9.805-55.345.184-70.402-22.875l-11.48-17.581c-5.775-8.844-14.571-15.235-24.768-17.995l-20.269-5.486c-26.583-7.195-44.882-32.382-43.51-59.887.22-4.413 3.991-7.816 8.389-7.591 4.413.22 7.812 3.976 7.592 8.389-1 20.046 12.336 38.402 31.71 43.646l20.269 5.486c13.99 3.787 26.06 12.555 33.984 24.691l11.48 17.581c10.975 16.806 32.554 23.817 51.309 16.671l19.622-7.475c13.543-5.16 28.462-5.16 42.006 0l19.622 7.475c18.759 7.145 40.336.134 51.31-16.671l11.48-17.581c7.925-12.136 19.994-20.904 33.984-24.691l20.269-5.486c19.374-5.244 32.71-23.6 31.71-43.646l-1.046-20.972c-.722-14.475 3.889-28.663 12.98-39.95l13.174-16.352c12.592-15.63 12.592-38.319 0-53.95l-13.173-16.352c-9.093-11.288-13.703-25.476-12.981-39.951l1.046-20.972c1-20.046-12.336-38.402-31.71-43.646l-20.269-5.486c-13.99-3.787-26.06-12.555-33.984-24.691l-11.48-17.581c-10.975-16.806-32.554-23.815-51.31-16.671l-19.622 7.475c-13.544 5.16-28.463 5.16-42.006 0l-19.622-7.475c-18.755-7.145-40.335-.134-51.309 16.672l-11.48 17.581c-7.924 12.135-19.994 20.904-33.984 24.691l-20.269 5.486c-19.375 5.244-32.71 23.6-31.71 43.646l1.045 20.972c.722 14.475-3.888 28.663-12.98 39.95l-13.173 16.352c-12.591 15.63-12.591 38.319 0 53.949l13.173 16.352c2.771 3.44 2.229 8.477-1.211 11.249-3.439 2.772-8.476 2.23-11.249-1.211l-13.173-16.352c-17.277-21.447-17.277-52.579 0-74.025l13.173-16.352c6.627-8.226 9.986-18.566 9.46-29.116l-1.045-20.972c-1.372-27.505 16.927-52.692 43.51-59.887l20.269-5.486c10.197-2.76 18.993-9.15 24.768-17.995l11.48-17.581c15.058-23.059 44.667-32.679 70.402-22.875l19.622 7.475c9.871 3.761 20.743 3.761 30.615 0l19.622-7.475c25.735-9.804 55.343-.185 70.401 22.875l11.48 17.581c5.775 8.844 14.571 15.235 24.768 17.995l20.269 5.486c26.583 7.195 44.882 32.381 43.511 59.887l-1.046 20.972c-.526 10.55 2.834 20.89 9.461 29.116l13.172 16.351c17.278 21.447 17.278 52.579-.001 74.025zm-282.945-5.012v-64c0-4.418-3.582-8-8-8s-8 3.582-8 8v40l-33.6-44.8c-4.594-6.126-14.4-2.874-14.4 4.8v64c0 4.418 3.582 8 8 8s8-3.582 8-8v-40l33.6 44.8c4.588 6.118 14.4 2.877 14.4-4.8zm72-56c4.418 0 8-3.582 8-8s-3.582-8-8-8h-48c-4.418 0-8 3.582-8 8v64c0 4.418 3.582 8 8 8h48c4.418 0 8-3.582 8-8s-3.582-8-8-8h-40v-16h24c4.418 0 8-3.582 8-8s-3.582-8-8-8h-24v-16zm81.464 60.613c4.201 5.952 13.569 3.615 14.475-3.621l8-64c.548-4.384-2.563-8.382-6.946-8.93-4.386-.547-8.383 2.562-8.931 6.946l-5.438 43.503-12.088-17.125c-3.18-4.505-9.884-4.517-13.072 0l-12.088 17.125-5.438-43.503c-.548-4.384-4.531-7.493-8.931-6.946-4.384.548-7.494 4.546-6.946 8.93l8 64c.905 7.234 10.269 9.576 14.475 3.621l17.464-24.741zm71.536-36.613c0-93.187-75.813-169-169-169s-169 75.813-169 169 75.813 169 169 169c54.765 0 106.37-26.724 138.045-71.486 2.553-3.607 1.697-8.599-1.909-11.152-3.606-2.551-8.6-1.698-11.151 1.909-28.681 40.531-75.403 64.728-124.984 64.728-84.364 0-153-68.635-153-153s68.636-153 153-153 153 68.636 153 153c0 4.418 3.582 8 8 8s7.999-3.581 7.999-7.999zm-26.193 55.033c-.268.694-.54 1.385-.818 2.074-2.132 5.287 1.796 10.994 7.417 10.994 3.167 0 6.166-1.893 7.423-5.01.308-.764.609-1.531.906-2.3 1.59-4.122-.463-8.753-4.585-10.343-4.121-1.59-8.754.463-10.343 4.585zm-202.807 36.967h120c4.418 0 8-3.582 8-8s-3.582-8-8-8h-120c-4.418 0-8 3.582-8 8s3.581 8 8 8z"/></svg>