<svg height="512" viewBox="0 0 64 64" width="512" xmlns="http://www.w3.org/2000/svg"><g id="Icons"><g><path d="m32 11.5c-13.51 0-24.5 10.991-24.5 24.5s10.99 24.5 24.5 24.5 24.5-10.991 24.5-24.5-10.99-24.5-24.5-24.5zm0 48c-12.958 0-23.5-10.542-23.5-23.5s10.542-23.5 23.5-23.5 23.5 10.542 23.5 23.5-10.542 23.5-23.5 23.5z"/><path d="m32 15.5c-11.304 0-20.5 9.196-20.5 20.5s9.196 20.5 20.5 20.5 20.5-9.196 20.5-20.5-9.196-20.5-20.5-20.5zm0 40c-10.752 0-19.5-8.748-19.5-19.5s8.748-19.5 19.5-19.5 19.5 8.748 19.5 19.5-8.748 19.5-19.5 19.5z"/><path d="m27.688 10.305c-.87-2.868 1.289-5.805 4.312-5.805 3.022 0 5.182 2.936 4.312 5.805l.957.29c1.063-3.508-1.575-7.095-5.269-7.095-3.695 0-6.331 3.589-5.269 7.095z"/><path d="m31.5 18h1v2h-1z"/><path d="m31.5 52h1v2h-1z"/><path d="m23 20.278h.999v2h-.999z" transform="matrix(.866 -.5 .5 .866 -7.491 14.602)"/><path d="m40 49.722h.999v2h-.999z" transform="matrix(.866 -.5 .5 .866 -19.936 27.047)"/><path d="m16.777 26.5h1v2h-1z" transform="matrix(.5 -.866 .866 .5 -15.177 28.716)"/><path d="m46.223 43.5h1v2h-1z" transform="matrix(.5 -.866 .866 .5 -15.175 62.719)"/><path d="m14 35.5h2v1h-2z"/><path d="m48 35.5h2v1h-2z"/><path d="m16.277 44h2v1h-2z" transform="matrix(.866 -.5 .5 .866 -19.933 14.597)"/><path d="m45.722 27h2v1h-2z" transform="matrix(.866 -.5 .5 .866 -7.49 27.041)"/><path d="m22.5 50.223h2v.999h-2z" transform="matrix(.5 -.866 .866 .5 -32.175 45.691)"/><path d="m39.5 20.778h2v.999h-2z" transform="matrix(.5 -.866 .866 .5 1.813 45.698)"/><path d="m32.228 47.3 7.404-13.582c.546-.998-.177-2.218-1.316-2.218h-3.222l.927-6.332c.158-.87-.511-1.668-1.392-1.668h-5.422c-.699 0-1.301.522-1.399 1.209l-1.54 10.065c-.137.908.565 1.726 1.483 1.726h3.849l-2.154 9.758c-.375 1.699 1.949 2.563 2.782 1.042zm-1.806-.826 2.288-10.366c.068-.313-.17-.608-.488-.608h-4.471c-.309 0-.542-.274-.495-.576l1.541-10.069c.029-.203.205-.355.41-.355h5.422c.251 0 .456.219.404.506l-1.013 6.921c-.043.303.191.572.495.572h3.8c.376 0 .622.403.438.739l-7.403 13.583c-.28.509-1.053.218-.928-.347z"/></g></g></svg>