<svg id="Layer_1" enable-background="new 0 0 450 450" height="512" viewBox="0 0 450 450" width="512" xmlns="http://www.w3.org/2000/svg"><path d="m258.6 390.6c-14.8 0-34.5-3.7-54.8-18.1-.1-.1-.2-.2-.4-.3-.4-.3-41.2-34.5-97.1-16.3-2.6.9-5.4-.6-6.3-3.2s.6-5.4 3.2-6.3c32.1-10.4 59.3-5 76.5 1.5 17.5 6.5 28.4 15.2 30 16.6 35.9 25.4 69.2 13.4 70.6 12.9.1-.1.3-.1.5-.2l140.5-37.6c10.7-2.9 17.1-14 14.3-24.7-1.4-5.2-4.7-9.5-9.4-12.2s-10.1-3.4-15.3-2l-114.9 30.6c-2.7.7-5.4-.9-6.1-3.5-.7-2.7.9-5.4 3.5-6.1l114.9-30.8c7.8-2.1 15.9-1 22.9 3s12 10.5 14.1 18.3c4.3 16.1-5.3 32.6-21.3 36.9l-140.3 37.6c-1.9.7-11.4 3.9-25.1 3.9z"/><path d="m265.5 354c-6 0-12-1.5-17.5-4.7l-72-41.6c-2.4-1.4-3.2-4.4-1.8-6.8s4.4-3.2 6.8-1.8l72 41.6c12 6.9 27.4 2.8 34.4-9.2 6.9-12 2.8-27.4-9.2-34.4-12.8-7.4-24.7-15-36.2-22.4-52.8-33.8-94.4-60.6-164.8-29.6-2.5 1.1-5.5 0-6.6-2.6-1.1-2.5 0-5.5 2.6-6.6 75.3-33.1 121.1-3.7 174.2 30.4 11.4 7.3 23.2 14.9 35.8 22.1 16.8 9.7 22.6 31.2 12.9 48-6.6 11.2-18.5 17.6-30.6 17.6z"/><path d="m53.5 398.1c-.9 0-1.7-.2-2.5-.7-1.1-.7-2-1.8-2.3-3l-44.3-165.1c-.7-2.7.9-5.4 3.5-6.1l58.3-15.6c1.3-.3 2.6-.2 3.8.5 1.1.7 2 1.8 2.3 3l44.2 165.1c.7 2.7-.9 5.4-3.5 6.1l-58.2 15.7c-.4.1-.9.1-1.3.1zm-38.1-166.6 41.6 155.5 48.7-13-41.6-155.5z"/><path d="m428.2 262.5h-176c-2.8 0-5-2.2-5-5v-22.5c0-35.3 19.7-67.1 51.4-83.1 2.3-1.2 5.2-.4 6.5 1.9 7.5 12.5 20.6 19.9 35.1 19.9s27.6-7.4 35.1-19.9c1.3-2.3 4.2-3.1 6.5-1.9 31.7 16 51.4 47.8 51.4 83.1v22.5c0 2.7-2.2 5-5 5zm-171-10h166.1v-17.5c0-30-16-57.3-42-72.1-9.5 12.9-24.8 20.8-41 20.8s-31.5-7.9-41-20.8c-26 14.9-42 42.1-42 72.1v17.5z"/><path d="m340.2 155.1c-28.1 0-50.9-22.8-50.9-50.9s22.8-50.9 50.9-50.9 50.9 22.8 50.9 50.9-22.8 50.9-50.9 50.9zm0-91.8c-22.5 0-40.9 18.3-40.9 40.9 0 22.5 18.3 40.9 40.9 40.9s40.9-18.3 40.9-40.9c0-22.5-18.3-40.9-40.9-40.9z"/><path d="m154.6 198.3c-12.7 0-23-10.3-23-23v-20.5h-20.5c-12.7 0-23-10.3-23-23s10.3-23 23-23h20.5v-20.6c0-12.7 10.3-23 23-23s23 10.3 23 23v20.5h20.5c12.7 0 23 10.3 23 23s-10.3 23-23 23h-20.5v20.5c.1 12.8-10.3 23.1-23 23.1zm-43.5-79.6c-7.2 0-13 5.9-13 13s5.9 13 13 13h25.5c2.8 0 5 2.2 5 5v25.5c0 7.2 5.9 13 13 13s13-5.9 13-13v-25.5c0-2.8 2.2-5 5-5h25.5c7.2 0 13-5.9 13-13s-5.9-13-13-13h-25.5c-2.8 0-5-2.2-5-5v-25.5c0-7.2-5.9-13-13-13-7.2 0-13 5.9-13 13v25.5c0 2.8-2.2 5-5 5z"/></svg>