<?xml version="1.0" encoding="utf-8"?>
<!-- Generator: Adobe Illustrator 23.0.1, SVG Export Plug-In . SVG Version: 6.00 Build 0)  -->
<svg version="1.1" id="Layer_1" xmlns="http://www.w3.org/2000/svg" xmlns:xlink="http://www.w3.org/1999/xlink" x="0px" y="0px"
	 viewBox="0 0 512 512" style="enable-background:new 0 0 512 512;" xml:space="preserve">
<style type="text/css">
	.st0{fill:#FFFFFF;}
</style>
<path d="M391,136C391,61.6,330.4,0,256,0S121,61.6,121,136s60.6,135,135,135S391,210.4,391,136z"/>
<path d="M15,481l88.6-0.3c2.7,0.4,143,25.9,174,31.1c3.9,0.6,7.6-0.2,10.9-2.4c33.8-23.7,230.7-162.9,217.2-153.5
	c6.9-4.9,8.2-14.1,3.6-21c-14.6-20.3-43-24.9-62.7-10.8c-3,2.1-148.8,103.4-139.6,96.9H196c-8.4,0-15-6.6-15-15c0-8.4,6.6-15,15-15
	c10.5,0,94.3,0,90,0c16.5,0,30-13.5,30-30s-13.5-30-30-30h-18.6c-3.6,0-7.2-1.2-9.9-3.6c-3.7-2.8-18-18.3-41.7-26.4
	c-68.1-24.1-111.4,27.8-115.5,30H15c-8.3,0-15,6.7-15,15v120.1C0,474.3,6.7,481,15,481z"/>
<g>
	<path class="st0" d="M302.7,101.3c-0.6-0.6-1.5-1-2.4-1h-18.2c-1.2-5.9-3.5-11-6.8-15.3h24.8c1,0,1.8-0.3,2.4-1
		c0.6-0.6,1-1.5,1-2.4V70.9c0-1-0.3-1.8-1-2.4c-0.6-0.6-1.5-1-2.4-1h-88.4c-1,0-1.8,0.3-2.4,1c-0.6,0.6-1,1.5-1,2.4V85
		c0,0.9,0.3,1.7,1,2.4s1.5,1,2.4,1h15.4c14.9,0,24.4,4,28.5,12h-43.9c-1,0-1.8,0.3-2.4,1c-0.6,0.6-1,1.5-1,2.4v10.8
		c0,1,0.3,1.8,1,2.4c0.6,0.6,1.5,1,2.4,1h45.4c-1.6,5.8-5.2,10.2-10.9,13.3c-5.7,3-13.2,4.6-22.6,4.6h-11.9c-0.9,0-1.7,0.3-2.4,1
		c-0.7,0.7-1,1.5-1,2.4v13.5c0,0.9,0.3,1.7,1,2.3c13.6,14.4,31.2,34.7,52.9,60.7c0.6,0.9,1.5,1.3,2.7,1.3h20.7
		c1.5,0,2.5-0.6,3.1-1.9c0.7-1.3,0.6-2.5-0.4-3.6c-20.7-25.4-36.9-44.3-48.8-56.9c12-1.4,21.8-5.3,29.3-11.7
		c7.5-6.4,12.1-14.7,13.7-24.9h17.8c1,0,1.8-0.3,2.4-1c0.6-0.6,1-1.5,1-2.4v-10.8C303.7,102.8,303.4,102,302.7,101.3z"/>
</g>
</svg>
