<svg height="450pt" viewBox="-2 0 450 450.84" width="450pt" xmlns="http://www.w3.org/2000/svg"><path d="m396.484375 268.101562-2.144531 1.15625c-9.328125-11.199218-25.398438-15.523437-37.644532-9.316406l-.132812.070313-5.28125 2.84375c-13.277344-11.164063-32.121094-12.835938-47.15625-4.179688l-29.074219 15.808594h-38.703125c-8.359375-.011719-16.609375-1.902344-24.140625-5.53125l-5.332031-2.578125c-31.015625-15.09375-67.878906-11.492188-95.390625 9.316406-.132813.097656-.257813.199219-.382813.3125l-12.871093 11.457032c-4.789063 4.253906-10.441407 7.425781-16.570313 9.289062l-7.253906-23.789062c-.769531-2.527344-3.097656-4.25-5.738281-4.25h-62.246094c-1.71875-.003907-3.355469.734374-4.492187 2.019531-1.140626 1.285156-1.671876 3-1.464844 4.703125l20.75 170.132812c.367187 3.011719 2.921875 5.273438 5.957031 5.273438h93.363281c1.902344 0 3.691406-.902344 4.824219-2.429688 1.128906-1.527344 1.46875-3.5.914063-5.320312l-12.222657-40.101563 38.0625-24.058593c5.066407-2.796876 11.007813-3.566407 16.617188-2.148438.125.03125.25.058594.375.082031l77.703125 14.308594c21.164062 3.785156 42.980468.707031 62.265625-8.789063.253906-.128906.5-.269531.734375-.433593l134.398437-92.277344c2.617188-1.796875 3.382813-5.324219 1.742188-8.042969-10.210938-17.015625-32.011719-22.976562-49.464844-13.527344zm-34.300781 2.515626c6.902344-3.457032 15.574218-.691407 21.203125 4.550781l-50.71875 27.363281-2.78125 1.464844c-1.59375-4.441406-3.882813-8.601563-6.785157-12.320313zm-52.253906-1.4375.140624-.078126c9.121094-5.273437 20.371094-5.238281 29.457032.089844l-25.484375 13.730469c-4.789063-3.476563-10.226563-5.953125-15.992188-7.289063zm-277.449219 169.660156-19.285157-158.128906h51.023438l48.210938 158.128906zm270.886719-67.027344c-16.878907 8.210938-35.925782 10.859375-54.40625 7.554688l-77.507813-14.273438c-8.574219-2.113281-17.632813-.886719-25.335937 3.4375-.089844.050781-.183594.105469-.273438.164062l-35.429688 22.394532-25.257812-82.847656c7.789062-2.375 14.96875-6.410157 21.050781-11.820313l12.683594-11.292969c23.910156-17.96875 55.863281-21.039062 82.757813-7.957031l5.328124 2.578125c9.164063 4.417969 19.199219 6.714844 29.367188 6.730469h51.695312c15.472657.019531 28.785157 10.953125 31.816407 26.128906l-37.207031-1.683594c-13.632813-.613281-27.292969.015625-40.8125 1.882813-3.28125.457031-5.574219 3.484375-5.121094 6.769531.457031 3.28125 3.484375 5.574219 6.769531 5.117187 12.792969-1.765624 25.71875-2.363281 38.621094-1.78125l44.09375 2c.089843 0 .179687.003907.269531.003907 3.316406 0 6-2.683594 6-6 0-.898438-.03125-1.785157-.085938-2.671875l5.929688-3.125 63.875-34.457032c9.925781-5.375 22.222656-3.464843 30.050781 4.667969zm0 0"/><path d="m50.515625 415.074219c0 10.1875 8.261719 18.445312 18.453125 18.445312 10.1875-.003906 18.445312-8.265625 18.441406-18.457031 0-10.1875-8.261718-18.445312-18.453125-18.441406-10.183593.011718-18.433593 8.269531-18.441406 18.453125zm18.445313-6.449219c3.5625 0 6.449218 2.886719 6.449218 6.449219.003906 3.558593-2.886718 6.449219-6.445312 6.449219-3.5625 0-6.449219-2.886719-6.449219-6.449219s2.882813-6.449219 6.441406-6.453125zm0 0"/><path d="m223.613281 230.839844c58.542969 0 106-47.457032 106-106 0-58.542969-47.457031-106-106-106s-106 47.457031-106 106c.066407 58.515625 47.484375 105.933594 106 106zm0-200c51.914063 0 94 42.085937 94 94 0 51.914062-42.085937 94-94 94-51.914062 0-94-42.085938-94-94 .058594-51.890625 42.109375-93.941406 94-94zm0 0"/><path d="m210.324219 124.460938h-.222657l-17.785156-.191407h-.066406c-2.445312 0-4.648438 1.484375-5.5625 3.75-.917969 2.269531-.363281 4.867188 1.394531 6.566407l44 42.480468c2.386719 2.304688 6.183594 2.238282 8.484375-.148437 2.300782-2.382813 2.234375-6.179688-.148437-8.484375l-33.148438-32 2.699219.03125c15.722656.164062 29.335938-10.898438 32.390625-26.324219l12.265625.132813h.0625c3.316406.015624 6.015625-2.65625 6.03125-5.96875.019531-3.316407-2.652344-6.015626-5.964844-6.03125l-12.257812-.132813c-.933594-5.398437-3.222656-10.472656-6.65625-14.742187l19.070312.199218h.066406c3.3125.019532 6.011719-2.652344 6.03125-5.96875.015626-3.3125-2.65625-6.011718-5.96875-6.03125l-44.371093-.476562-17.785157-.1875c-3.3125-.035156-6.027343 2.621094-6.0625 5.933594-.035156 3.316406 2.621094 6.03125 5.933594 6.066406l17.785156.1875c9.105469.105468 17.070313 6.144531 19.632813 14.882812l-37.574219-.398437h-.066406c-3.3125-.019531-6.015625 2.652343-6.03125 5.96875-.019531 3.3125 2.65625 6.011719 5.96875 6.03125l37.558594.398437c-2.71875 8.59375-10.6875 14.441406-19.703125 14.457032zm0 0"/><path d="m370.964844 67.667969c-3.316406 0-6 2.6875-6 6v10c0 3.316406 2.683594 6 6 6 3.3125 0 6-2.683594 6-6v-10c0-3.3125-2.6875-6-6-6zm0 0"/><path d="m370.964844 97.667969c-3.316406 0-6 2.6875-6 6v10c0 3.316406 2.683594 6 6 6 3.3125 0 6-2.683594 6-6v-10c0-3.3125-2.6875-6-6-6zm0 0"/><path d="m350.964844 87.667969c-3.316406 0-6 2.6875-6 6 0 3.316406 2.683594 6 6 6h10c3.3125 0 6-2.683594 6-6 0-3.3125-2.6875-6-6-6zm0 0"/><path d="m390.964844 99.667969c3.3125 0 6-2.683594 6-6 0-3.3125-2.6875-6-6-6h-10c-3.316406 0-6 2.6875-6 6 0 3.316406 2.683594 6 6 6zm0 0"/><path d="m107.824219 0c-3.3125 0-6 2.6875-6 6v10c0 3.3125 2.6875 6 6 6 3.316406 0 6-2.6875 6-6v-10c0-3.3125-2.683594-6-6-6zm0 0"/><path d="m107.824219 30c-3.3125 0-6 2.6875-6 6v10c0 3.3125 2.6875 6 6 6 3.316406 0 6-2.6875 6-6v-10c0-3.3125-2.683594-6-6-6zm0 0"/><path d="m87.824219 20c-3.3125 0-6 2.6875-6 6s2.6875 6 6 6h10c3.316406 0 6-2.6875 6-6s-2.683594-6-6-6zm0 0"/><path d="m127.824219 20h-10c-3.3125 0-6 2.6875-6 6s2.6875 6 6 6h10c3.316406 0 6-2.6875 6-6s-2.683594-6-6-6zm0 0"/></svg>