<svg id="f75d34ca-2545-46b1-8596-0df4346259f4" viewBox="0 0 64 64" xmlns="http://www.w3.org/2000/svg" data-name="line"><g fill="rgb(0,0,0)"><path d="m37 21.68018a.99974.99974 0 0 0 -1 1v11.5a2.35217 2.35217 0 0 1 -2.34961 2.34961h-25.29a2.35761 2.35761 0 0 1 -2.36039-2.34961v-19.56006a2.36761 2.36761 0 0 1 2.36035-2.37012h16.71973a1.00011 1.00011 0 0 0 0-2h-16.71973a4.3702 4.3702 0 0 0 -4.36035 4.37012v19.56006a4.3599 4.3599 0 0 0 4.36035 4.34961h25.29a4.35447 4.35447 0 0 0 4.34965-4.34961v-11.5a.99974.99974 0 0 0 -1-1z"/><path d="m25.39746 18.041c-2.05277 2.01937-6.49525 2.02626-8.55567.00013a1.00705 1.00705 0 0 0 -1.68553.29384l-3.09767 7.95503h-2.63379a1 1 0 0 0 0 2h3.12214a14.483 14.483 0 0 0 17.14269-.00019l2.90021.00019a1.0001 1.0001 0 0 0 0-2h-2.40918l-1.4743-3.78613h3.88348a1.00011 1.00011 0 0 0 0-2h-4.66229l-.84455-2.16887a1.00691 1.00691 0 0 0 -1.68554-.294zm2.637 8.249h-5.72391a1.0001 1.0001 0 0 0 0 2h3.18672c-3.922 1.783-9.11672.39591-11.51193-1.43626l2.53415-6.50808a9.68858 9.68858 0 0 0 4.59473 1.20948 9.84708 9.84708 0 0 0 4.60547-1.20948z"/><path d="m27.63477 16.709h4.95023a1.0001 1.0001 0 0 0 0-2h-4.95023a1.0001 1.0001 0 0 0 0 2z"/><path d="m14.2373 15.709a.99974.99974 0 0 0 -1-1h-3.8164a1 1 0 0 0 0 2h3.8164a.99973.99973 0 0 0 1-1z"/><path d="m21.83105 16.709a1.0001 1.0001 0 0 0 0-2h-3.81738a1.0001 1.0001 0 0 0 0 2z"/><path d="m9.4248 20.50391a1.0001 1.0001 0 0 0 0 2h1.6504a1 1 0 0 0 0-2z"/><path d="m32.585 32.08252h-10.92777a1.00011 1.00011 0 0 0 0 2h10.92777a1.00011 1.00011 0 0 0 0-2z"/><path d="m11.58887 32.08252h-2.16797a1.0001 1.0001 0 0 0 0 2h2.16793a1.0001 1.0001 0 0 0 .00004-2z"/><path d="m15.92578 32.08252a1.0001 1.0001 0 0 0 0 2h2.16793a1.0001 1.0001 0 0 0 0-2z"/><path d="m55.71973 19.50391h-6.66407a2.97541 2.97541 0 0 0 -1.09566 5.69531v4.14062a4.26906 4.26906 0 0 0 3.42774 4.17524v16.41168a4.16863 4.16863 0 0 1 -8.33692-.0001v-24.223a7.73158 7.73158 0 0 0 -5.05082-7.23833v-3.84521a4.36482 4.36482 0 0 0 -4.34961-4.37012h-4.49023a1 1 0 0 0 0 2h4.49023a2.36224 2.36224 0 0 1 2.34961 2.37012v3.39209c-.7387-.13769-1.6699.04369-1.67478.96589a.99969.99969 0 0 0 1 .99993 5.7319 5.7319 0 0 1 5.72558 5.72558v24.22315c.28339 8.15165 12.04464 8.173 12.33692-.00011v-16.41884c1.29739-.11574 4.28915-2.40793 2.51669-3.61381a1.00066 1.00066 0 0 0 -1.33994.4517c-1.03656 2.1238-4.634 1.44318-4.60446-1.00589v-3.92086h4.84961v1.36084a1.00011 1.00011 0 0 0 2 0v-1.57879c2.85472-1.148 2.08551-5.71395-1.08989-5.69709zm.86718 3.04736a.87075.87075 0 0 1 -.91015.86767h-6.584c-1.18133.06323-1.21727-1.92851-.037-1.915h6.664a.9.9 0 0 1 .86715 1.04733z"/><path d="m59.66113 10.67432a11.09515 11.09515 0 0 0 -14.54-.07364 1 1 0 0 0 1.30859 1.5126 9.08335 9.08335 0 0 1 11.90917.06209 1.0004 1.0004 0 0 0 1.32224-1.50105z"/><path d="m56.75879 15.40381a.99771.99771 0 0 0 .74609-.334c1.39619-1.89033-3.788-3.51554-5.16008-3.3403a7.59859 7.59859 0 0 0 -5.01375 1.88034 1.00017 1.00017 0 0 0 1.31841 1.50387 5.66907 5.66907 0 0 1 7.44331.03622.99731.99731 0 0 0 .66602.25387z"/><path d="m49.5332 16.60254a1.00018 1.00018 0 0 0 1.3106 1.5107 2.33523 2.33523 0 0 1 3.01948.0186 1 1 0 1 0 1.32617-1.49707 4.39911 4.39911 0 0 0 -5.65625-.03223z"/></g></svg>